<?xml version="1.0" standalone="no"?>
<!DOCTYPE svg PUBLIC "-//W3C//DTD SVG 1.1//EN" "http://www.w3.org/Graphics/SVG/1.1/DTD/svg11.dtd" >
<svg xmlns="http://www.w3.org/2000/svg">
<metadata>Generated by IcoMoon</metadata>
<defs>
<font id="CaGov" horiz-adv-x="1024">
<font-face units-per-em="1024" ascent="960" descent="-64" />
<missing-glyph horiz-adv-x="1024" />
<glyph unicode="&#x20;" horiz-adv-x="512" d="" />
<glyph unicode="&#x32;" glyph-name="caret-up" d="M358.976 313.6l185.024 185.024 185.024-185.024c12.48-12.48 32.768-12.48 45.248 0s12.48 32.768 0 45.248l-207.552 207.552c-6.272 6.272-14.464 9.344-22.72 9.344s-16.448-3.072-22.72-9.344l-207.552-207.552c-12.48-12.48-12.48-32.768 0-45.248s32.768-12.48 45.248 0z" />
<glyph unicode="&#x33;" glyph-name="caret-down" d="M729.024 518.4l-185.024-185.024-185.024 185.024c-12.48 12.48-32.768 12.48-45.248 0s-12.48-32.768 0-45.248l207.552-207.552c6.272-6.272 14.528-9.408 22.72-9.344 8.256 0 16.448 3.072 22.72 9.344l207.552 207.552c12.48 12.48 12.48 32.768 0 45.248s-32.768 12.48-45.248 0z" />
<glyph unicode="&#x34;" glyph-name="caret-left" d="M393.6 393.28l207.552-207.552c12.48-12.48 32.768-12.48 45.248 0s12.48 32.768 0 45.248l-185.024 185.024 185.024 185.024c12.48 12.48 12.48 32.768 0 45.248s-32.768 12.48-45.248 0l-207.552-207.552c-6.272-6.272-9.344-14.464-9.344-22.72s3.072-16.448 9.344-22.72z" />
<glyph unicode="&#x35;" glyph-name="caret-right" d="M441.6 185.728c12.48-12.48 32.768-12.48 45.248 0l207.552 207.552c6.272 6.272 9.408 14.528 9.344 22.72 0 8.256-3.072 16.448-9.344 22.72l-207.552 207.552c-12.48 12.48-32.768 12.48-45.248 0s-12.48-32.768 0-45.248l185.024-185.024-185.024-185.024c-12.48-12.48-12.48-32.768 0-45.248z" />
<glyph unicode="&#x36;" glyph-name="caret-two-up" d="M750.464 505.216l-214.080 189.376c-6.4 6.4-14.784 9.472-23.168 9.344-8.448 0.128-16.832-2.944-23.232-9.344l-214.080-189.376c-12.544-12.544-12.544-32.96 0-45.504s32.96-12.544 45.504 0l191.744 169.664 191.744-169.664c12.544-12.544 32.96-12.544 45.504 0 12.672 12.544 12.672 32.896 0.064 45.504zM536.384 465.088c-6.4 6.4-14.784 9.472-23.168 9.344-8.448 0.128-16.832-2.944-23.232-9.344l-214.080-189.376c-12.544-12.544-12.544-32.96 0-45.504s32.96-12.544 45.504 0l191.744 169.6 191.744-169.6c12.544-12.544 32.96-12.544 45.504 0s12.544 32.96 0 45.504l-214.016 189.376z" />
<glyph unicode="&#x37;" glyph-name="caret-two-down" d="M702.592 436.352l-191.744-169.6-191.744 169.6c-12.544 12.544-32.96 12.544-45.504 0s-12.544-32.96 0-45.504l214.080-189.376c6.4-6.4 14.784-9.472 23.168-9.344 8.384-0.128 16.768 2.88 23.168 9.28l214.080 189.376c12.544 12.544 12.544 32.96 0 45.504s-32.96 12.608-45.504 0.064zM748.096 665.856c-12.544 12.544-32.96 12.544-45.504 0l-191.744-169.6-191.744 169.6c-12.608 12.544-33.024 12.544-45.568 0s-12.544-32.96 0-45.504l214.080-189.376c6.4-6.4 14.784-9.472 23.168-9.344 8.384-0.128 16.832 2.944 23.168 9.344l214.080 189.376c12.672 12.544 12.672 32.896 0.064 45.504z" />
<glyph unicode="&#x38;" glyph-name="caret-two-left" d="M265.408 425.984l189.376-214.080c12.544-12.544 32.96-12.544 45.504 0s12.544 32.96 0 45.504l-169.6 191.744 169.6 191.744c12.544 12.544 12.544 32.96 0 45.504s-32.96 12.544-45.504 0l-189.376-214.016c-6.4-6.4-9.408-14.784-9.344-23.168-0.064-8.384 2.944-16.832 9.344-23.232zM729.856 686.464c-12.544 12.544-32.96 12.544-45.504 0l-189.44-214.080c-6.4-6.4-9.472-14.784-9.344-23.168-0.064-8.384 2.944-16.832 9.344-23.232l189.376-214.080c12.544-12.544 32.96-12.544 45.504 0s12.544 32.96 0 45.504l-169.6 191.744 169.6 191.744c12.608 12.608 12.608 33.024 0.064 45.568z" />
<glyph unicode="&#x39;" glyph-name="caret-two-right" d="M758.592 470.016l-189.376 214.080c-12.544 12.544-32.96 12.544-45.504 0s-12.544-32.96 0-45.504l169.6-191.744-169.6-191.744c-12.544-12.544-12.544-32.96 0-45.504s32.96-12.544 45.504 0l189.376 214.080c6.4 6.4 9.472 14.784 9.344 23.168 0.064 8.384-2.944 16.768-9.344 23.168zM294.144 209.536c12.544-12.544 32.96-12.544 45.504 0l189.376 214.080c6.4 6.4 9.472 14.784 9.344 23.168 0.128 8.384-2.944 16.832-9.344 23.168l-189.312 214.144c-12.544 12.544-32.96 12.544-45.504 0s-12.544-32.96 0-45.504l169.6-191.744-169.6-191.744c-12.608-12.608-12.608-33.024-0.064-45.568z" />
<glyph unicode="&#x3a;" glyph-name="caret-line-up" d="M568.72 564.4c-6.272 6.272-14.464 9.344-22.72 9.344s-16.448-3.072-22.72-9.344l-207.552-207.552c-12.48-12.48-12.48-32.768 0-45.248s32.768-12.48 45.248 0l185.024 185.024 185.024-185.024c12.48-12.48 32.768-12.48 45.248 0s12.48 32.768 0 45.248l-207.552 207.552zM548.112 889.712c-263.936 0-477.888-213.952-477.888-477.888s214.016-477.824 477.888-477.824 477.888 213.952 477.888 477.888-213.952 477.824-477.888 477.824zM548.112-2c-228.224 0-413.888 185.664-413.888 413.888s185.664 413.888 413.888 413.888 413.888-185.728 413.888-413.888-185.664-413.888-413.888-413.888z" />
<glyph unicode="&#x3b;" glyph-name="caret-line-down" d="M729.024 518.4l-185.024-185.024-185.024 185.024c-12.48 12.48-32.768 12.48-45.248 0s-12.48-32.768 0-45.248l207.552-207.552c6.272-6.272 14.528-9.408 22.72-9.344 8.256 0 16.448 3.072 22.72 9.344l207.552 207.552c12.48 12.48 12.48 32.768 0 45.248s-32.768 12.48-45.248 0zM546.304 891.456c-263.808 0-477.696-213.888-477.696-477.696-0.064-263.872 213.824-477.76 477.696-477.76 263.808 0 477.696 213.888 477.696 477.696 0 263.872-213.888 477.76-477.696 477.76zM546.304 0c-228.096 0-413.696 185.6-413.696 413.696s185.6 413.696 413.696 413.696c228.096 0.064 413.696-185.536 413.696-413.696 0-228.096-185.6-413.696-413.696-413.696z" />
<glyph unicode="&#x3c;" glyph-name="caret-line-left" d="M646.4 646.272c-12.48 12.48-32.768 12.48-45.248 0l-207.552-207.552c-6.272-6.272-9.344-14.464-9.344-22.72s3.072-16.448 9.344-22.72l207.552-207.552c12.48-12.48 32.768-12.48 45.248 0s12.48 32.768 0 45.248l-185.024 185.024 185.024 185.024c12.48 12.48 12.48 32.768 0 45.248zM544 896c-265.088 0-480-214.912-480-480s214.912-480 480-480 480 214.912 480 480-214.912 480-480 480zM544 0c-229.376 0-416 186.624-416 416s186.624 416 416 416 416-186.624 416-416-186.624-416-416-416z" />
<glyph unicode="&#x3d;" glyph-name="caret-line-right" d="M694.4 438.72l-207.552 207.552c-12.48 12.48-32.768 12.48-45.248 0s-12.48-32.768 0-45.248l185.024-185.024-185.024-185.024c-12.48-12.48-12.48-32.768 0-45.248s32.768-12.48 45.248 0l207.552 207.552c6.272 6.272 9.408 14.528 9.344 22.72 0 8.256-3.072 16.448-9.344 22.72zM546.304 891.392c-263.808 0-477.696-213.888-477.696-477.696s213.888-477.696 477.696-477.696 477.696 213.888 477.696 477.696-213.888 477.696-477.696 477.696zM546.304 0c-228.096 0-413.696 185.6-413.696 413.696s185.6 413.696 413.696 413.696 413.696-185.6 413.696-413.696-185.6-413.696-413.696-413.696z" />
<glyph unicode="&#x3e;" glyph-name="caret-line-two-up" d="M568.384 662.592c-6.4 6.4-14.784 9.472-23.168 9.344-8.448 0.128-16.832-2.944-23.232-9.344l-214.080-189.376c-12.544-12.544-12.544-32.96 0-45.504s32.96-12.544 45.504 0l191.744 169.664 191.744-169.664c12.544-12.544 32.96-12.544 45.504 0s12.544 32.96 0 45.504l-214.016 189.376zM568.384 433.088c-6.4 6.4-14.784 9.472-23.168 9.344-8.448 0.128-16.832-2.944-23.232-9.344l-214.080-189.376c-12.544-12.544-12.544-32.96 0-45.504s32.96-12.544 45.504 0l191.744 169.6 191.744-169.6c12.544-12.544 32.96-12.544 45.504 0s12.544 32.96 0 45.504l-214.016 189.376zM546.304 891.392c-263.808 0-477.696-213.888-477.696-477.696s213.888-477.696 477.696-477.696 477.696 213.888 477.696 477.696-213.888 477.696-477.696 477.696zM546.304 0c-228.096 0-413.696 185.6-413.696 413.696s185.6 413.696 413.696 413.696 413.696-185.6 413.696-413.696-185.6-413.696-413.696-413.696z" />
<glyph unicode="&#x3f;" glyph-name="caret-line-two-down" d="M734.592 404.352l-191.744-169.6-191.744 169.6c-12.544 12.544-32.96 12.544-45.504 0s-12.544-32.96 0-45.504l214.080-189.376c6.4-6.4 14.784-9.472 23.168-9.344 8.384-0.128 16.832 2.944 23.168 9.344l214.080 189.376c12.544 12.544 12.544 32.96 0 45.504s-32.96 12.544-45.504 0zM734.592 633.856l-191.744-169.6-191.744 169.6c-12.608 12.544-33.024 12.544-45.568 0s-12.544-32.96 0-45.504l214.080-189.376c6.4-6.4 14.784-9.472 23.168-9.344 8.384-0.128 16.832 2.944 23.168 9.344l214.080 189.376c12.544 12.544 12.544 32.96 0 45.504s-32.896 12.544-45.44 0zM546.304 891.392c-263.808 0-477.696-213.888-477.696-477.696s213.888-477.696 477.696-477.696 477.696 213.888 477.696 477.696-213.888 477.696-477.696 477.696zM546.304 0c-228.096 0-413.696 185.6-413.696 413.696s185.6 413.696 413.696 413.696 413.696-185.6 413.696-413.696-185.6-413.696-413.696-413.696z" />
<glyph unicode="&#x40;" glyph-name="caret-line-two-left" d="M362.688 417.216l169.6 191.744c12.544 12.544 12.544 32.96 0 45.504s-32.96 12.544-45.504 0l-189.376-214.080c-6.4-6.4-9.472-14.784-9.344-23.168-0.064-8.384 2.944-16.832 9.344-23.232l189.376-214.080c12.544-12.544 32.96-12.544 45.504 0s12.544 32.96 0 45.504l-169.6 191.808zM761.856 654.464c-12.544 12.544-32.96 12.544-45.504 0l-189.44-214.080c-6.4-6.4-9.472-14.784-9.344-23.168-0.064-8.384 2.944-16.832 9.344-23.232l189.376-214.080c12.544-12.544 32.96-12.544 45.504 0s12.544 32.96 0 45.504l-169.6 191.744 169.6 191.744c12.608 12.608 12.608 33.024 0.064 45.568zM544 896c-265.088 0-480-214.912-480-480s214.912-480 480-480 480 214.912 480 480-214.912 480-480 480zM544 0c-229.376 0-416 186.624-416 416s186.624 416 416 416 416-186.624 416-416-186.624-416-416-416z" />
<glyph unicode="&#x41;" glyph-name="caret-line-two-right" d="M790.592 438.016l-189.376 214.080c-12.544 12.544-32.96 12.544-45.504 0s-12.544-32.96 0-45.504l169.6-191.744-169.6-191.744c-12.544-12.544-12.544-32.96 0-45.504s32.96-12.544 45.504 0l189.376 214.080c6.4 6.4 9.472 14.784 9.344 23.168 0.064 8.384-2.944 16.768-9.344 23.168zM570.432 414.848c0.128 8.384-2.944 16.832-9.344 23.168l-189.376 214.080c-12.544 12.544-32.96 12.544-45.504 0s-12.544-32.96 0-45.504l169.6-191.744-169.6-191.744c-12.544-12.544-12.544-32.96 0-45.504s32.96-12.544 45.504 0l189.376 214.080c6.4 6.336 9.472 14.72 9.344 23.168zM544 896c-265.088 0-480-214.912-480-480s214.912-480 480-480 480 214.912 480 480-214.912 480-480 480zM544 0c-229.376 0-416 186.624-416 416s186.624 416 416 416 416-186.624 416-416-186.624-416-416-416z" />
<glyph unicode="&#x42;" glyph-name="triangle-up" d="M287.936 320h446.912c9.152 0 17.28 4.416 23.040 11.264l0.128-0.128c12.48 13.888 12.48 36.416 0 50.304l-223.936 248.128c-12.48 13.888-32.704 13.888-45.12 0-0.32-0.384-0.448-0.896-0.768-1.28l-223.488-246.848c-12.48-13.888-12.48-36.416 0-50.304 0.128-0.128 0.256-0.192 0.384-0.32 5.824-6.656 13.824-10.816 22.848-10.816z" />
<glyph unicode="&#x43;" glyph-name="triangle-down" d="M533.824 330.432c0.32 0.384 0.448 0.896 0.768 1.28l223.424 246.848c12.48 13.888 12.48 36.416 0 50.304-0.128 0.128-0.256 0.192-0.384 0.256-5.76 6.72-13.824 10.88-22.784 10.88h-446.912c-9.152 0-17.28-4.416-23.104-11.264l-0.128 0.128c-12.48-13.888-12.48-36.416 0-50.304l223.936-248.128c12.48-13.888 32.704-13.888 45.184 0z" />
<glyph unicode="&#x44;" glyph-name="triangle-left" d="M578.56 695.296l-248.128-224c-13.888-12.48-13.888-32.704 0-45.12 0.384-0.32 0.896-0.448 1.28-0.768l246.848-223.424c13.888-12.48 36.416-12.48 50.304 0 0.128 0.128 0.128 0.256 0.256 0.384 6.72 5.76 10.88 13.824 10.88 22.784v446.912c0 9.152-4.416 17.28-11.264 23.040l0.128 0.128c-13.888 12.48-36.416 12.48-50.304 0.064z" />
<glyph unicode="&#x45;" glyph-name="triangle-right" d="M444.608 200.768l244.864 224.512c13.696 12.48 13.696 32.768 0 45.248-0.384 0.32-0.896 0.448-1.28 0.768l-243.584 224c-13.696 12.48-35.968 12.48-49.664 0-0.064-0.128-0.128-0.32-0.256-0.448-6.528-5.76-10.688-13.824-10.688-22.848v-448c0-9.152 4.352-17.28 11.072-23.104l-0.128-0.128c13.76-12.544 35.968-12.544 49.664 0z" />
<glyph unicode="&#x46;" glyph-name="triangle-line-up" d="M544 896c-265.088 0-480-214.912-480-480s214.912-480 480-480 480 214.912 480 480-214.912 480-480 480zM544 0c-229.376 0-416 186.624-416 416s186.624 416 416 416 416-186.624 416-416-186.624-416-416-416zM563.2 565.568c-10.88 13.888-28.608 13.888-39.488 0-0.32-0.384-0.384-0.896-0.704-1.28l-195.456-246.848c-10.88-13.888-10.88-36.416 0-50.304 0.064-0.128 0.256-0.128 0.32-0.256 5.056-6.72 12.096-10.88 19.968-10.88h391.040c8 0 15.104 4.416 20.16 11.264l0.128-0.128c10.88 13.888 10.88 36.416 0 50.304l-195.968 248.128z" />
<glyph unicode="&#x47;" glyph-name="triangle-line-down" d="M544 896c-265.088 0-480-214.912-480-480s214.912-480 480-480 480 214.912 480 480-214.912 480-480 480zM544 0c-229.376 0-416 186.624-416 416s186.624 416 416 416 416-186.624 416-416-186.624-416-416-416zM759.488 501.184c-5.056 6.656-12.096 10.816-19.968 10.816h-391.040c-8 0-15.104-4.416-20.16-11.264l-0.128 0.128c-10.88-13.888-10.88-36.416 0-50.304l195.968-248.128c10.88-13.888 28.608-13.888 39.488 0 0.32 0.384 0.384 0.896 0.704 1.28l195.52 246.848c10.88 13.888 10.88 36.416 0 50.304-0.128 0.128-0.256 0.192-0.384 0.32z" />
<glyph unicode="&#x48;" glyph-name="triangle-line-left" d="M544 896c-265.088 0-480-214.912-480-480s214.912-480 480-480 480 214.912 480 480-214.912 480-480 480zM544 0c-229.376 0-416 186.624-416 416s186.624 416 416 416 416-186.624 416-416-186.624-416-416-416zM628.864 632.448c-13.888 10.88-36.416 10.88-50.304 0l-248.128-195.968c-13.888-10.88-13.888-28.608 0-39.488 0.384-0.32 0.896-0.384 1.28-0.704l246.848-195.52c13.888-10.88 36.416-10.88 50.304 0 0.128 0.064 0.128 0.256 0.256 0.32 6.72 5.12 10.88 12.16 10.88 20.032v391.040c0 8-4.416 15.104-11.264 20.16l0.128 0.128z" />
<glyph unicode="&#x49;" glyph-name="triangle-line-right" d="M544 896c-265.088 0-480-214.912-480-480s214.912-480 480-480 480 214.912 480 480-214.912 480-480 480zM544 0c-229.376 0-416 186.624-416 416s186.624 416 416 416 416-186.624 416-416-186.624-416-416-416zM756.288 436.928l-246.848 195.52c-13.888 10.88-36.416 10.88-50.304 0-0.128-0.128-0.192-0.256-0.32-0.32-6.656-5.056-10.816-12.096-10.816-19.968v-391.040c0-8 4.416-15.104 11.264-20.16l-0.128-0.128c13.888-10.88 36.416-10.88 50.304 0l248.128 195.968c13.888 10.88 13.888 28.608 0 39.488-0.384 0.32-0.896 0.384-1.28 0.64z" />
<glyph unicode="&#x4b;" glyph-name="minus-mark" d="M231.99 367.996h640.026c22.082 0 40.002 17.922 40.002 40.002s-17.922 40.002-40.002 40.002h-640.026c-22.080 0-40.002-17.92-40.002-40.002s17.92-40.002 40.002-40.002z" />
<glyph unicode="&#x4c;" glyph-name="plus-mark" d="M275.554 380.444h236.446v-236.446c0-18.646 15.132-33.778 33.778-33.778s33.778 15.132 33.778 33.778v236.446h236.446c18.646 0 33.778 15.132 33.778 33.778s-15.132 33.778-33.778 33.778h-236.446v236.446c0 18.646-15.132 33.778-33.778 33.778s-33.778-15.132-33.778-33.778v-236.446h-236.446c-18.646 0-33.778-15.132-33.778-33.778s15.132-33.778 33.778-33.778z" />
<glyph unicode="&#x4d;" glyph-name="close-mark" d="M274.448 210.448c13.33-13.33 35-13.33 48.33 0l189.222 189.222 189.222-189.222c13.33-13.33 35-13.33 48.33 0s13.33 35 0 48.33l-189.222 189.222 189.222 189.222c13.33 13.33 13.33 35 0 48.33s-35 13.33-48.33 0l-189.222-189.222-189.222 189.222c-13.33 13.33-35 13.33-48.33 0s-13.33-35 0-48.33l189.222-189.222-189.222-189.222c-13.33-13.33-13.33-35 0-48.33z" />
<glyph unicode="&#x4e;" glyph-name="check-mark" d="M442.82 148.132c1.25-1 2.002-2.376 3.314-3.316 1.878-1.25 4.002-1.5 6.004-2.376 2.378-1.126 4.69-2.188 7.192-2.876 2.44-0.626 4.816-0.938 7.318-1.126 3.564-0.376 7.006-0.376 10.51 0.126 1.44 0.25 2.814 0.626 4.252 1 4.316 1.062 8.32 2.752 12.26 5.13 0.688 0.438 1.25 0.938 1.94 1.376 2.564 1.75 5.318 3.066 7.506 5.442 1.564 1.688 2.252 3.878 3.502 5.754 0.062 0.062 0.188 0.126 0.188 0.188l372.74 597.422c13.26 20.204 7.568 47.35-12.698 60.612s-47.35 7.57-60.612-12.698l-344.278-551.76-190.404 185.212c-17.764 16.452-45.412 15.388-61.862-2.376-16.388-17.764-15.324-45.474 2.438-61.864l229.062-222.868c0.438-0.438 1.062-0.562 1.626-1z" />
<glyph unicode="&#x4f;" glyph-name="minus-line" d="M544 896c-265.088 0-480-214.912-480-480s214.912-480 480-480 480 214.912 480 480-214.912 480-480 480zM544 0c-229.376 0-416 186.624-416 416s186.624 416 416 416 416-186.624 416-416-186.624-416-416-416zM800 448h-512c-17.664 0-32-14.336-32-32s14.336-32 32-32h512c17.664 0 32 14.336 32 32s-14.336 32-32 32z" />
<glyph unicode="&#x50;" glyph-name="plus-line" d="M544 896c-265.088 0-480-214.912-480-480s214.912-480 480-480 480 214.912 480 480-214.912 480-480 480zM544 0c-229.376 0-416 186.624-416 416s186.624 416 416 416 416-186.624 416-416-186.624-416-416-416zM800 448h-224v224c0 17.664-14.336 32-32 32s-32-14.336-32-32v-224h-224c-17.664 0-32-14.336-32-32s14.336-32 32-32h224v-224c0-17.664 14.336-32 32-32s32 14.336 32 32v224h224c17.664 0 32 14.336 32 32s-14.336 32-32 32z" />
<glyph unicode="&#x51;" glyph-name="close-line" d="M544 896c-265.088 0-480-214.912-480-480s214.912-480 480-480 480 214.912 480 480-214.912 480-480 480zM544 0c-229.376 0-416 186.624-416 416s186.624 416 416 416 416-186.624 416-416-186.624-416-416-416zM721.152 638.4l-175.936-175.936-157.76 175.936c-12.48 12.48-32.768 12.48-45.248 0s-12.48-32.768 0-45.248l157.824-175.936-178.368-178.368c-12.48-12.48-12.48-32.768 0-45.248s32.768-12.48 45.248 0l175.936 175.936 157.824-175.936c12.48-12.48 32.768-12.48 45.248 0s12.48 32.768 0 45.248l-157.888 175.936 178.368 178.368c12.48 12.48 12.48 32.768 0 45.248s-32.768 12.48-45.248 0z" />
<glyph unicode="&#x52;" glyph-name="check-line" d="M514.688 960c-282.752 0-512-229.248-512-512s229.248-512 512-512 512 229.248 512 512-229.248 512-512 512zM514.688 0c-247.040 0-448 200.96-448 448s200.96 448 448 448 448-200.96 448-448-201.024-448-448-448zM738.944 651.648c-20.672 13.568-48.448 7.744-62.016-12.992l-216.064-330.176-103.296 95.616c-18.176 16.768-46.528 15.68-63.36-2.496s-15.68-46.464 2.496-63.296l142.784-132.096c0.512-0.448 1.152-0.576 1.664-1.024 1.28-1.024 2.048-2.432 3.392-3.392 1.92-1.28 4.096-1.536 6.144-2.432 2.432-1.152 4.8-2.24 7.36-2.944 2.496-0.64 4.928-0.96 7.488-1.152 3.648-0.384 7.168-0.384 10.752 0.128 1.472 0.256 2.88 0.64 4.352 1.024 4.416 1.088 8.512 2.816 12.544 5.248 0.704 0.448 1.28 0.96 1.984 1.408 2.624 1.792 5.44 3.136 7.68 5.568 1.6 1.728 2.304 3.968 3.584 5.888 0.064 0.064 0.192 0.128 0.192 0.192l245.248 374.848c13.568 20.736 7.744 48.512-12.928 62.080z" />
<glyph unicode="&#x55;" glyph-name="search-right" d="M596.182 898.336c-202.162 0-366.050-163.888-366.050-366.050 0-87.034 30.538-166.84 81.23-229.748l-241.962-241.962c-15.168-15.168-15.168-39.904 0-55.172 15.168-15.168 39.902-15.168 55.172 0l241.962 241.962c62.808-50.692 142.716-81.23 229.748-81.23 202.162 0 366.050 163.888 366.050 366.050s-163.888 366.152-366.152 366.152v0zM596.182 239.832c-161.24 0-292.452 131.11-292.452 292.452s131.212 292.35 292.452 292.35 292.452-131.11 292.452-292.452-131.11-292.35-292.452-292.35z" />
<glyph unicode="&#x58;" glyph-name="collapse" d="M241.774 650.668v-472.894c0-37.292 30.266-67.556 67.556-67.556h472.894c37.292 0 67.556 30.266 67.556 67.556v472.894c0 37.292-30.266 67.556-67.556 67.556h-472.894c-37.292 0-67.556-30.266-67.556-67.556zM782.226 177.774h-472.894v472.894h472.894v-472.894zM410.666 380.444h270.226c18.646 0 33.778 15.132 33.778 33.778s-15.132 33.778-33.778 33.778h-270.226c-18.646 0-33.778-15.132-33.778-33.778s15.132-33.778 33.778-33.778z" />
<glyph unicode="&#x59;" glyph-name="expand" d="M241.774 650.668v-472.894c0-37.292 30.266-67.556 67.556-67.556h472.894c37.292 0 67.556 30.266 67.556 67.556v472.894c0 37.292-30.266 67.556-67.556 67.556h-472.894c-37.292 0-67.556-30.266-67.556-67.556zM782.226 177.774h-472.894v472.894h472.894v-472.894zM410.666 380.444h101.334v-101.334c0-18.646 15.132-33.778 33.778-33.778s33.778 15.132 33.778 33.778v101.334h101.334c18.646 0 33.778 15.132 33.778 33.778s-15.132 33.778-33.778 33.778h-101.334v101.334c0 18.646-15.132 33.778-33.778 33.778s-33.778-15.132-33.778-33.778v-101.334h-101.334c-18.646 0-33.778-15.132-33.778-33.778s15.132-33.778 33.778-33.778z" />
<glyph unicode="&#x6a;" glyph-name="pencil" d="M910.124 49.876l-59.256 178.844-478.408 478.408-119.588-119.588 478.408-478.408zM173.14 667.272l119.588 119.588-59.2 59.2c-33.038 33.038-86.55 33.038-119.588 0-33.038-32.98-33.038-86.606 0-119.588l59.2-59.2z" />
<glyph unicode="&#x6c;" glyph-name="pencil-edit" d="M664.668 295.332l-52.604 158.81-303.454 303.454-106.208-106.208 303.454-303.454zM61.722 898.278c-29.342-29.344-29.342-76.868 0-106.208l78.166-78.166 106.208 106.208-78.166 78.166c-29.342 29.342-76.868 29.342-106.208 0zM925.26 743.186h-418.516l59.038-59.038h359.48v-649.41h-649.41v359.48l-59.038 59.038v-418.516c0-32.588 26.448-59.038 59.038-59.038h649.41c32.588 0 59.038 26.448 59.038 59.038v649.41c0 32.588-26.448 59.038-59.038 59.038z" />
<glyph unicode="&#xe00a;" glyph-name="science" d="M81.408 171.008c15.36-23.872 47.616-52.288 114.176-52.288 41.856 0 95.424 12.224 155.072 33.536 25.792-113.664 73.216-216.256 161.344-216.256 89.6 0 137.216 106.112 162.688 222.144 59.776-20.224 113.536-31.872 155.584-31.872 70.4 0 103.424 29.952 118.784 55.040 49.664 81.408-27.84 184.768-121.408 270.208 17.28 16.64 33.536 33.28 47.808 49.472 80.896 92.096 103.488 167.424 67.136 224-15.36 23.872-47.616 52.288-114.176 52.288v0c-41.856 0-95.424-12.224-155.072-33.536-25.792 113.664-73.216 216.256-161.344 216.256-89.6 0-137.216-106.112-162.688-222.144-59.776 20.288-113.536 31.872-155.584 31.872v0c-70.4 0-103.488-29.952-118.784-55.040-49.664-81.408 27.84-184.768 121.408-270.208-17.28-16.704-33.536-33.28-47.808-49.472-80.896-92.096-103.488-167.488-67.136-224zM512 0c-41.408 0-78.144 69.184-101.568 176 33.664 14.528 68.48 31.488 104.128 50.88 34.176-17.536 67.584-32.832 99.968-46.144-23.296-109.504-60.48-180.736-102.528-180.736zM384 448c0 23.488 0.704 46.4 1.664 68.928 18.432 13.056 37.312 25.984 57.088 38.72 22.72 14.592 45.184 28.032 67.456 40.832 22.592-12.288 45.376-25.152 68.416-39.168 20.608-12.608 40.384-25.472 59.584-38.4 1.088-23.168 1.792-46.72 1.792-70.912 0-23.488-0.704-46.4-1.664-68.928-18.432-13.056-37.312-25.984-57.088-38.72-22.72-14.592-45.184-28.032-67.456-40.832-22.592 12.288-45.376 25.152-68.416 39.168-20.608 12.608-40.384 25.472-59.584 38.4-1.088 23.168-1.792 46.72-1.792 70.912zM320.32 423.936c-9.408 7.168-18.624 14.336-27.456 21.44 8.832 7.488 17.984 14.976 27.328 22.464-0.128-8.576-0.192-15.808-0.192-19.84 0-4.672 0.128-13.504 0.32-24.064zM391.488 598.144c1.856 18.176 4.032 35.776 6.528 52.8 14.592-6.208 29.504-13.056 44.736-20.224-11.52-7.040-23.040-13.76-34.624-21.184-5.76-3.776-10.944-7.68-16.64-11.392zM576.96 632.32c16.512 8.32 32.64 16.064 48.448 23.168 2.688-18.112 4.992-36.992 6.976-56.384-8.896 5.696-16.384 10.368-20.352 12.8-11.712 7.168-23.424 13.632-35.072 20.416zM703.68 472.064c9.408-7.168 18.624-14.336 27.456-21.44-8.832-7.488-17.984-14.912-27.392-22.464 0.192 8.576 0.256 15.808 0.256 19.84 0 4.672-0.128 13.504-0.32 24.064zM632.512 297.856c-1.856-18.176-3.968-35.84-6.464-52.8-14.592 6.208-29.568 13.056-44.736 20.224 11.52 7.040 23.040 13.76 34.624 21.184 5.696 3.776 10.88 7.68 16.576 11.392zM411.968 284.096c11.712-7.168 23.36-13.632 35.072-20.416-16.512-8.32-32.64-16.064-48.448-23.168-2.688 18.048-4.992 36.928-6.976 56.384 8.896-5.632 16.384-10.368 20.352-12.8zM894.4 214.656c-10.112-16.512-32.512-24.384-64.128-24.384-36.928 0-86.784 11.264-143.616 31.232 6.784 43.904 11.008 86.784 13.504 123.392 28.608 21.12 55.040 42.496 80.064 64 90.304-81.984 137.28-156.416 114.176-194.24zM828.416 713.28c29.312 0 50.368-7.36 60.352-22.912 24-37.312-21.312-112.896-109.76-197.056-27.52 22.4-54.656 42.88-79.104 60.224-2.624 37.76-6.976 81.792-14.208 126.784 56.768 21.056 106.368 32.96 142.72 32.96zM512 896c41.408 0 78.144-69.184 101.568-176-33.664-14.528-68.48-31.488-104.128-50.88-34.24 17.536-67.648 32.896-99.968 46.144 23.296 109.504 60.48 180.736 102.528 180.736zM129.6 681.344c10.112 16.512 32.512 24.384 64.128 24.384 36.928 0 86.784-11.264 143.616-31.232-6.848-43.904-11.008-86.72-13.504-123.392-28.608-21.12-55.040-42.496-80.064-64-90.304 81.984-137.28 156.416-114.176 194.24zM324.032 342.528c2.624-37.76 6.976-81.792 14.208-126.784-56.704-21.056-106.304-32.96-142.656-32.96-29.312 0-50.368 7.36-60.352 22.912-24 37.312 21.312 112.896 109.76 197.056 27.456-22.4 54.592-42.944 79.040-60.224z" />
<glyph unicode="&#xe024;" glyph-name="film" d="M917.994 911.988h-811.982c-32.016 0-58-25.984-58-58v-811.982c0-32.016 25.984-58 58-58h811.982c32.016 0 58 25.984 58 58v811.982c0 32.016-25.984 58-58 58zM222.006 390v-116h-116v116h116zM106.006 506v116h116v-116h-116zM280.006 332h463.988v-289.994h-463.988v289.994zM743.994 390h-463.988v463.988h463.988v-463.988zM801.994 390h116v-116h-116v116zM801.994 506v116h116v-116h-116zM801.994 737.994v116h116v-116h-116zM222.006 737.994h-116v116h116v-116zM106.006 158.006h116v-116h-116v116zM801.994 158.006h116v-116h-116v116z" />
<glyph unicode="&#xe025;" glyph-name="table" d="M997.36 815.956c-2.674 31.312-27.966 57.64-59.764 57.64h-851.192c-31.798 0-57.090-26.326-59.766-57.64h-1.034v-793.552c0-33.562 27.238-60.798 60.798-60.798h851.192c33.562 0 60.798 27.238 60.798 60.798v793.552h-1.034zM390.402 508.798v182.396h243.194v-182.396h-243.194zM633.598 448v-187.444h-243.194v187.444h243.194zM329.604 691.194v-182.396h-243.194v182.396h243.194zM86.404 448h243.194v-187.444h-243.194v187.444zM86.404 22.404v182.396h243.194v-182.396h-243.194zM390.402 22.404v182.396h243.194v-182.396h-243.194zM937.596 22.404h-243.194v182.396h243.194v-182.396zM937.596 260.554h-243.194v187.446h243.194v-187.444zM937.596 508.798h-243.194v182.396h243.194v-182.396z" />
<glyph unicode="&#xe035;" glyph-name="tools" d="M87.696 142.488c-32.816-32.816-32.816-85.968 0-118.792 16.408-16.408 37.916-24.584 59.424-24.584s43.016 8.176 59.424 24.584l275.832 275.832-118.848 118.792-275.832-275.832zM777.078 653.712l120.024 62.112 62.952 121.592-58.64 58.64-121.592-62.952-62.112-120.024-146.288-146.288 59.368-59.368zM803.344 334.868c-3.808 0.224-7.448 1.12-11.312 1.12-20.496 0-39.934-4.2-58.080-10.92l-344.888 344.888c6.72 18.144 10.92 37.58 10.92 58.080 0 3.864-0.896 7.504-1.12 11.312-5.936 87.424-77.96 156.704-166.896 156.704-25.872 0-50.128-6.328-72.024-16.8l111.618-111.62c5.88-5.88 9.912-12.824 12.6-20.16 7.336-19.88 3.36-43.016-12.6-59.032-10.92-10.92-25.256-16.408-39.598-16.408-6.608 0-13.16 1.456-19.432 3.808-7.336 2.744-14.28 6.72-20.16 12.6l-111.618 111.62c-10.472-21.896-16.8-46.152-16.8-72.024 0-88.936 69.28-160.96 156.704-166.896 3.808-0.224 7.448-1.12 11.312-1.12 20.496 0 39.934 4.2 58.080 10.92l344.888-344.888c-6.72-18.144-10.92-37.58-10.92-58.080 0-3.864 0.896-7.504 1.12-11.312 5.936-87.424 77.96-156.704 166.896-156.704 25.872 0 50.128 6.328 72.024 16.8l-111.62 111.62c-5.88 5.88-9.912 12.824-12.6 20.16-7.336 19.88-3.36 43.016 12.6 59.032 10.92 10.92 25.256 16.408 39.598 16.408 6.608 0 13.16-1.456 19.432-3.808 7.336-2.744 14.28-6.72 20.16-12.6l111.62-111.62c10.472 21.896 16.8 46.152 16.8 72.024 0 88.936-69.28 160.96-156.704 166.896z" />
<glyph unicode="&#xe039;" glyph-name="arrow-fill-up" d="M544 896c-265.088 0-480-214.912-480-480s214.912-480 480-480 480 214.912 480 480-214.912 480-480 480zM758.656 457.344c-12.48-12.48-32.768-12.48-45.248 0l-137.408 137.408v-498.752c0-17.664-14.336-32-32-32s-32 14.336-32 32v498.752l-137.344-137.408c-12.48-12.48-32.768-12.48-45.248 0s-12.48 32.768 0 45.248l192 192c0.064 0.128 0.128 0.128 0.192 0.192 2.88 2.816 6.336 5.184 10.112 6.72 7.808 3.264 16.64 3.264 24.448 0 3.968-1.6 7.488-3.904 10.496-6.848l192-192c12.48-12.544 12.48-32.768 0-45.312z" />
<glyph unicode="&#xe03a;" glyph-name="arrow-fill-down" d="M544 896c-265.088 0-480-214.912-480-480s214.912-480 480-480 480 214.912 480 480-214.912 480-480 480zM758.656 329.344l-192-192c-2.944-2.944-6.464-5.312-10.368-6.912-7.808-3.264-16.64-3.264-24.448 0-3.84 1.6-7.232 3.904-10.112 6.72-0.064 0.064-0.192 0.064-0.256 0.192l-192 192c-12.48 12.48-12.48 32.768 0 45.248s32.768 12.48 45.248 0l137.28-137.344v498.752c0 17.664 14.336 32 32 32s32-14.336 32-32v-498.752l137.344 137.344c12.48 12.48 32.768 12.48 45.248 0 12.544-12.48 12.544-32.704 0.064-45.248z" />
<glyph unicode="&#xe03b;" glyph-name="arrow-fill-left" d="M544 896c-265.088 0-480-214.912-480-480s214.912-480 480-480 480 214.912 480 480-214.912 480-480 480zM896 416c0-17.664-14.336-32-32-32h-498.752l137.344-137.344c12.48-12.48 12.48-32.768 0-45.248s-32.768-12.48-45.248 0l-192 192c-0.064 0.064-0.128 0.192-0.192 0.32-2.816 2.88-5.12 6.272-6.656 10.048-1.6 3.904-2.496 8-2.496 12.096 0 0.064 0 0.064 0 0.128v0c0 4.16 0.832 8.32 2.496 12.224 1.536 3.776 3.84 7.168 6.656 10.048 0.128 0.128 0.128 0.256 0.256 0.384l192 192c12.48 12.48 32.768 12.48 45.248 0s12.48-32.768 0-45.248l-137.408-137.408h498.752c17.664 0 32-14.336 32-32z" />
<glyph unicode="&#xe03c;" glyph-name="arrow-fill-right" d="M544 896c-265.088 0-480-214.912-480-480s214.912-480 480-480 480 214.912 480 480-214.912 480-480 480zM832 416c0-0.064 0-0.064 0-0.128 0-4.16-0.832-8.256-2.432-12.096-1.6-3.904-3.968-7.424-6.912-10.368l-192-192c-12.48-12.48-32.768-12.48-45.248 0s-12.48 32.768 0 45.248l137.344 137.344h-498.752c-17.664 0-32 14.336-32 32s14.336 32 32 32h498.752l-137.408 137.344c-12.48 12.48-12.48 32.768 0 45.248s32.768 12.48 45.248 0l192-192c2.944-2.944 5.312-6.464 6.912-10.368 1.664-3.904 2.496-8.064 2.496-12.224v0z" />
<glyph unicode="&#xe03d;" glyph-name="arrow-fill-left-up" d="M204.608 755.392c-187.456-187.456-187.456-491.392 0-678.848s491.392-187.456 678.848 0c187.456 187.456 187.456 491.392 0 678.848-187.52 187.456-491.392 187.456-678.848 0zM781.952 178.048c-12.48-12.48-32.768-12.48-45.248 0l-352.704 352.704v-194.304c0-17.664-14.336-32-32-32s-32 14.336-32 32v271.552c0 4.16 0.832 8.32 2.496 12.224 1.536 3.776 3.84 7.168 6.656 10.048 0.128 0.128 0.128 0.256 0.256 0.384 0.064 0.064 0.128 0.064 0.192 0.128 2.88 2.816 6.336 5.184 10.112 6.72 3.968 1.664 8.128 2.496 12.288 2.496h271.552c17.664 0 32-14.336 32-32s-14.336-32-32-32h-194.304l352.64-352.64c12.544-12.544 12.544-32.768 0.064-45.312z" />
<glyph unicode="&#xe03e;" glyph-name="arrow-fill-right-up" d="M204.608 755.392c-187.456-187.456-187.456-491.392 0-678.848s491.392-187.456 678.848 0c187.456 187.456 187.456 491.392 0 678.848-187.52 187.456-491.392 187.456-678.848 0zM768 608v-271.552c0-17.664-14.336-32-32-32s-32 14.336-32 32v194.304l-352.64-352.64c-12.48-12.48-32.768-12.48-45.248 0s-12.48 32.768 0 45.248l352.64 352.64h-194.304c-17.664 0-32 14.336-32 32s14.336 32 32 32h271.552c4.16 0 8.32-0.832 12.224-2.496 7.808-3.264 14.080-9.472 17.28-17.28 1.664-3.904 2.496-8.064 2.496-12.224v0z" />
<glyph unicode="&#xe03f;" glyph-name="arrow-fill-right-down" d="M204.608 755.392c-187.456-187.456-187.456-491.392 0-678.848s491.392-187.456 678.848 0c187.456 187.456 187.456 491.392 0 678.848-187.52 187.456-491.392 187.456-678.848 0zM768 224c0-0.064 0-0.064 0-0.128 0-4.16-0.832-8.256-2.432-12.096-3.264-7.808-9.472-14.080-17.28-17.28-3.968-1.664-8.128-2.496-12.288-2.496h-271.552c-17.664 0-32 14.336-32 32s14.336 32 32 32h194.304l-352.64 352.64c-12.48 12.48-12.48 32.768 0 45.248s32.768 12.48 45.248 0l352.64-352.64v194.304c0 17.664 14.336 32 32 32s32-14.336 32-32v-271.552z" />
<glyph unicode="&#xe040;" glyph-name="arrow-fill-left-down" d="M204.608 755.392c-187.456-187.456-187.456-491.392 0-678.848s491.392-187.456 678.848 0c187.456 187.456 187.456 491.392 0 678.848-187.52 187.456-491.392 187.456-678.848 0zM781.952 608.64l-352.704-352.64h194.304c17.664 0 32-14.336 32-32s-14.336-32-32-32h-271.552c-4.16 0-8.32 0.832-12.224 2.496-3.84 1.6-7.232 3.904-10.112 6.72-0.064 0.064-0.192 0.064-0.256 0.192-0.128 0.128-0.128 0.256-0.256 0.384-2.816 2.88-5.12 6.272-6.656 10.048-1.6 3.84-2.496 7.936-2.496 12.032 0 0.064 0 0.064 0 0.128v271.552c0 17.664 14.336 32 32 32s32-14.336 32-32v-194.304l352.64 352.64c12.48 12.48 32.768 12.48 45.248 0s12.544-32.704 0.064-45.248z" />
<glyph unicode="&#xe043;" glyph-name="caret-fill-up" d="M544-64c265.088 0 480 214.912 480 480s-214.912 480-480 480-480-214.912-480-480 214.912-480 480-480zM313.728 358.848l207.552 207.552c6.272 6.272 14.464 9.344 22.72 9.344s16.448-3.072 22.72-9.344l207.552-207.552c12.48-12.48 12.48-32.768 0-45.248s-32.768-12.48-45.248 0l-185.024 185.024-185.024-185.024c-12.48-12.48-32.768-12.48-45.248 0s-12.48 32.768 0 45.248z" />
<glyph unicode="&#xe044;" glyph-name="caret-fill-down" d="M544 896c-265.088 0-480-214.912-480-480s214.912-480 480-480 480 214.912 480 480-214.912 480-480 480zM774.272 473.152l-207.552-207.552c-6.272-6.272-14.528-9.408-22.72-9.344-8.256 0-16.448 3.072-22.72 9.344l-207.552 207.552c-12.48 12.48-12.48 32.768 0 45.248s32.768 12.48 45.248 0l185.024-185.024 185.024 185.024c12.48 12.48 32.768 12.48 45.248 0s12.48-32.768 0-45.248z" />
<glyph unicode="&#xe045;" glyph-name="caret-fill-left" d="M544 896c-265.088 0-480-214.912-480-480s214.912-480 480-480 480 214.912 480 480-214.912 480-480 480zM646.4 230.976c12.48-12.48 12.48-32.768 0-45.248s-32.768-12.48-45.248 0l-207.552 207.552c-6.272 6.272-9.344 14.464-9.344 22.72s3.072 16.448 9.344 22.72l207.552 207.552c12.48 12.48 32.768 12.48 45.248 0s12.48-32.768 0-45.248l-185.024-185.024 185.024-185.024z" />
<glyph unicode="&#xe046;" glyph-name="caret-fill-right" d="M544 896c-265.088 0-480-214.912-480-480s214.912-480 480-480 480 214.912 480 480-214.912 480-480 480zM694.4 393.28l-207.552-207.552c-12.48-12.48-32.768-12.48-45.248 0s-12.48 32.768 0 45.248l185.024 185.024-185.024 185.024c-12.48 12.48-12.48 32.768 0 45.248s32.768 12.48 45.248 0l207.552-207.552c6.272-6.272 9.408-14.528 9.344-22.72 0-8.256-3.072-16.448-9.344-22.72z" />
<glyph unicode="&#xe047;" glyph-name="caret-fill-two-up" d="M544 896c-265.088 0-480-214.912-480-480s214.912-480 480-480 480 214.912 480 480-214.912 480-480 480zM782.464 198.144c-12.544-12.544-32.96-12.544-45.504 0l-191.744 169.6-191.744-169.6c-12.544-12.544-32.96-12.544-45.504 0s-12.544 32.96 0 45.504l214.080 189.376c6.4 6.4 14.784 9.472 23.168 9.344 8.384 0.192 16.768-2.88 23.168-9.28l214.080-189.376c12.608-12.608 12.608-32.96 0-45.568zM782.464 427.648c-12.544-12.544-32.96-12.544-45.504 0l-191.808 169.664-191.744-169.664c-12.544-12.544-32.96-12.544-45.504 0s-12.544 32.96 0 45.504l214.080 189.376c6.4 6.4 14.784 9.472 23.168 9.344 8.448 0.192 16.832-2.88 23.232-9.28l214.080-189.376c12.608-12.608 12.608-32.96 0-45.568z" />
<glyph unicode="&#xe048;" glyph-name="caret-fill-two-down" d="M546.112 891.712c-263.936 0-477.888-213.952-477.888-477.888s214.016-477.824 477.888-477.824 477.888 213.952 477.888 477.888-213.952 477.824-477.888 477.824zM780.096 358.784l-214.080-189.376c-6.4-6.4-14.784-9.472-23.168-9.344-8.448-0.064-16.832 2.944-23.232 9.344l-214.080 189.376c-12.544 12.544-12.544 32.96 0 45.504s32.96 12.544 45.504 0l191.744-169.6 191.744 169.6c12.544 12.544 32.96 12.544 45.504 0s12.672-32.896 0.064-45.504zM780.096 588.288l-214.080-189.376c-6.4-6.4-14.784-9.472-23.168-9.344-8.448-0.064-16.832 2.944-23.232 9.344l-214.080 189.376c-12.544 12.544-12.544 32.96 0 45.504 12.544 12.608 32.96 12.608 45.504 0.064l191.744-169.6 191.744 169.6c12.544 12.544 32.96 12.544 45.504 0s12.672-32.96 0.064-45.568z" />
<glyph unicode="&#xe049;" glyph-name="caret-fill-two-left" d="M546.304 891.456c-263.808 0-477.696-213.888-477.696-477.696-0.064-263.872 213.824-477.76 477.696-477.76 263.808 0 477.696 213.888 477.696 477.696 0 263.872-213.888 477.76-477.696 477.76zM532.352 179.904c-12.544-12.544-32.96-12.544-45.504 0l-189.44 214.080c-6.4 6.4-9.472 14.848-9.344 23.232-0.064 8.384 2.944 16.768 9.344 23.168l189.376 214.080c12.544 12.544 32.96 12.544 45.504 0s12.544-32.96 0-45.504l-169.6-191.744 169.6-191.744c12.608-12.608 12.608-33.024 0.064-45.568zM761.856 225.408c12.544-12.544 12.544-32.96 0-45.504s-32.96-12.544-45.504 0l-189.44 214.080c-6.4 6.4-9.472 14.848-9.344 23.232-0.064 8.384 2.944 16.768 9.344 23.168l189.376 214.080c12.544 12.544 32.96 12.544 45.504 0s12.544-32.96 0-45.504l-169.6-191.744 169.664-191.808z" />
<glyph unicode="&#xe04a;" glyph-name="caret-fill-two-right" d="M546.304 891.392c-263.808 0-477.696-213.888-477.696-477.696s213.888-477.696 477.696-477.696 477.696 213.888 477.696 477.696-213.888 477.696-477.696 477.696zM326.144 177.536c-12.544 12.544-12.544 32.96 0 45.504l169.6 191.744-169.6 191.744c-12.544 12.608-12.544 33.024 0 45.568s32.96 12.544 45.504 0l189.376-214.080c6.4-6.4 9.472-14.784 9.344-23.168 0.192-8.448-2.88-16.832-9.28-23.232l-189.376-214.080c-12.608-12.608-32.96-12.608-45.568 0zM790.592 391.616l-189.376-214.080c-12.544-12.544-32.96-12.544-45.504 0s-12.544 32.96 0 45.504l169.6 191.744-169.6 191.744c-12.544 12.544-12.544 32.96 0 45.504s32.96 12.544 45.504 0l189.376-214.080c6.4-6.4 9.472-14.784 9.344-23.168 0.064-8.384-2.944-16.768-9.344-23.168z" />
<glyph unicode="&#xe04b;" glyph-name="arrow-up" d="M544 896c-265.088 0-480-214.912-480-480s214.912-480 480-480 480 214.912 480 480-214.912 480-480 480zM759.168 331.136l-0.128 0.128c-5.056-6.848-12.16-11.264-20.16-11.264h-391.040c-7.872 0-14.912 4.16-19.968 10.816-0.064 0.128-0.192 0.192-0.32 0.32-10.88 13.888-10.88 36.416 0 50.304l195.52 246.848c0.256 0.384 0.384 0.896 0.704 1.28 10.88 13.888 28.608 13.888 39.488 0l195.968-248.128c10.88-13.888 10.88-36.416-0.064-50.304z" />
<glyph unicode="&#xe04c;" glyph-name="arrow-down" d="M544 896c-265.088 0-480-214.912-480-480s214.912-480 480-480 480 214.912 480 480-214.912 480-480 480zM759.168 450.56l-195.52-246.848c-0.256-0.384-0.384-0.896-0.704-1.28-10.88-13.888-28.608-13.888-39.488 0l-195.904 248.128c-10.88 13.888-10.88 36.416 0 50.304l0.128-0.128c5.056 6.848 12.16 11.264 20.16 11.264h391.040c7.872 0 14.912-4.16 19.968-10.816 0.128-0.128 0.256-0.128 0.32-0.256 10.944-13.952 10.944-36.48 0-50.368z" />
<glyph unicode="&#xe04d;" glyph-name="arrow-left" d="M544 896c-265.088 0-480-214.912-480-480s214.912-480 480-480 480 214.912 480 480-214.912 480-480 480zM640 221.12c0-7.872-4.16-14.912-10.816-19.968-0.128-0.128-0.128-0.256-0.256-0.32-13.888-10.88-36.416-10.88-50.304 0l-246.912 195.456c-0.384 0.32-0.896 0.384-1.28 0.704-13.888 10.88-13.888 28.608 0 39.488l248.128 195.968c13.888 10.88 36.416 10.88 50.304 0l-0.128-0.128c6.848-5.056 11.264-12.16 11.264-20.16v-391.040z" />
<glyph unicode="&#xe04e;" glyph-name="arrow-right" d="M544 896c-265.088 0-480-214.912-480-480s214.912-480 480-480 480 214.912 480 480-214.912 480-480 480zM757.568 396.8l-248.128-195.968c-13.888-10.88-36.416-10.88-50.304 0l0.128 0.128c-6.848 5.056-11.264 12.16-11.264 20.16v391.040c0 7.872 4.16 14.912 10.816 19.968 0.128 0.064 0.192 0.192 0.32 0.32 13.888 10.88 36.416 10.88 50.304 0l246.848-195.52c0.384-0.32 0.896-0.384 1.28-0.704 13.888-10.88 13.888-28.544 0-39.424z" />
<glyph unicode="&#xe04f;" glyph-name="minus-fill" d="M543.466 888.532c-260.668 0-471.998-211.33-471.998-471.998s211.33-471.998 471.998-471.998 471.998 211.328 471.998 471.998-211.328 471.998-471.998 471.998zM795.198 385.068h-503.464c-17.37 0-31.466 14.096-31.466 31.466s14.096 31.466 31.466 31.466h503.464c17.37 0 31.466-14.096 31.466-31.466s-14.096-31.466-31.466-31.466z" />
<glyph unicode="&#xe050;" glyph-name="plus-fill" d="M543.466 888.532c-260.668 0-471.998-211.33-471.998-471.998s211.33-471.998 471.998-471.998 471.998 211.328 471.998 471.998-211.328 471.998-471.998 471.998zM795.198 385.068h-220.266v-220.266c0-17.37-14.096-31.466-31.466-31.466s-31.466 14.096-31.466 31.466v220.266h-220.266c-17.37 0-31.466 14.096-31.466 31.466s14.096 31.466 31.466 31.466h220.266v220.266c0 17.37 14.096 31.466 31.466 31.466s31.466-14.096 31.466-31.466v-220.266h220.266c17.37 0 31.466-14.096 31.466-31.466s-14.096-31.466-31.466-31.466z" />
<glyph unicode="&#xe051;" glyph-name="close-fill" d="M543.466 888.532c-260.668 0-471.998-211.33-471.998-471.998s211.33-471.998 471.998-471.998 471.998 211.328 471.998 471.998-211.328 471.998-471.998 471.998zM762.158 590.732l-175.394-175.394 155.192-173.002c12.272-12.272 12.272-32.222 0-44.494s-32.222-12.272-44.494 0l-155.192 173.004-173.002-173.002c-12.272-12.272-32.222-12.272-44.494 0s-12.272 32.222 0 44.494l175.394 175.394-155.192 173.004c-12.272 12.272-12.272 32.222 0 44.494s32.222 12.272 44.494 0l155.192-173.002 173.002 173.002c12.272 12.272 32.222 12.272 44.494 0s12.272-32.222 0-44.494z" />
<glyph unicode="&#xe052;" glyph-name="check-fill" d="M514.604 943.996c-273.914 0-495.996-222.082-495.996-495.996s222.082-495.996 495.996-495.996 495.996 222.082 495.996 495.996-222.082 495.996-495.996 495.996zM744.374 585.206l-237.582-363.132c-0.062-0.062-0.186-0.124-0.186-0.186-1.24-1.86-1.922-3.968-3.472-5.704-2.17-2.356-4.96-3.596-7.44-5.394-0.62-0.434-1.24-0.93-1.922-1.364-3.844-2.418-7.812-4.030-12.152-5.084-1.426-0.372-2.728-0.744-4.216-0.992-3.534-0.496-6.882-0.496-10.416-0.124-2.48 0.186-4.836 0.496-7.254 1.116-2.48 0.682-4.774 1.736-7.13 2.852-1.984 0.93-4.092 1.178-5.952 2.356-1.364 0.868-2.108 2.232-3.286 3.286-0.496 0.434-1.116 0.558-1.612 0.992l-138.322 127.906c-17.608 16.306-18.662 43.772-2.418 61.318s43.71 18.662 61.318 2.418l100.13-92.628 209.248 319.856c13.144 20.026 39.99 25.668 60.078 12.586 20.088-13.144 25.73-40.052 12.586-60.078z" />
<glyph unicode="&#xe05c;" glyph-name="folder" d="M935.994 871.994h-302.856c-33.436 0-60.572-27.136-60.572-60.572 0 0-7.874-55.544-60.572-60.572h-423.994c-33.436 0-60.57-26.166-60.57-59.6v-61.54h969.134v181.712c0 33.434-27.136 60.57-60.572 60.57zM27.434 84.576c0-33.434 27.136-60.572 60.57-60.572h847.99c33.436 0 60.572 27.136 60.572 60.572v484.566h-969.134v-484.566z" />
<glyph unicode="&#xe062;" glyph-name="warning-fill" d="M735.632 925.83c-11.656 11.656-27.404 18.166-43.896 18.166h-359.474c-16.43 0-32.24-6.51-43.834-18.166l-254.198-254.26c-11.718-11.594-18.228-27.342-18.228-43.834v-359.536c0-16.43 6.51-32.24 18.166-43.834l254.198-254.26c11.656-11.594 27.404-18.104 43.896-18.104h359.536c16.43 0 32.24 6.51 43.834 18.166l254.198 254.26c11.656 11.594 18.166 27.342 18.166 43.834v359.474c0 16.43-6.51 32.24-18.166 43.834l-254.198 254.26zM512 324c-34.224 0-62 27.776-62 62v371.998c0 34.224 27.776 62 62 62s62-27.776 62-62v-371.998c0-34.224-27.776-62-62-62zM574 138.002c0-34.224-27.776-62-62-62s-62 27.776-62 62c0 34.224 27.776 62 62 62s62-27.776 62-62z" />
<glyph unicode="&#xe063;" glyph-name="warning-triangle" d="M80.854 14.936h860.312c21.716 0 41.884 11.384 53.082 30.068 11.198 18.622 11.754 41.76 1.546 60.938l-429.228 804.262c-10.702 20.106-31.676 32.728-54.504 32.728h-0.062c-22.828 0-43.74-12.558-54.504-32.666l-431.146-804.262c-10.27-19.178-9.714-42.316 1.422-61 11.198-18.622 31.366-30.068 53.082-30.068zM512 262.402c34.15 0 61.866-27.716 61.866-61.866s-27.716-61.866-61.866-61.866-61.866 27.716-61.866 61.866c0 34.15 27.716 61.866 61.866 61.866zM450.134 385.144v247.466c0 34.15 27.716 61.866 61.866 61.866s61.866-27.716 61.866-61.866v-247.466c0-34.15-27.716-61.866-61.866-61.866s-61.866 27.716-61.866 61.866z" />
<glyph unicode="&#xe064;" glyph-name="question-fill" d="M512-47.996c273.914 0 495.996 222.082 495.996 495.996s-222.082 495.996-495.996 495.996-495.996-222.082-495.996-495.996 222.082-495.996 495.996-495.996zM512 819.998c123.442 0 247.998-70.68 247.998-228.654 0-91.946-45.57-163.74-135.408-213.154-26.040-14.322-50.592-42.656-50.592-54.188 0-34.224-27.776-62-62-62s-62 27.776-62 62c0 78.678 72.168 139.376 114.824 162.81 62.682 34.596 71.176 72.292 71.176 104.532 0 91.078-77.686 104.656-124 104.656-59.706 0-124-39.184-124-125.302 0-34.224-27.776-62-62-62s-62 27.776-62 62c0 161.942 127.782 249.3 247.998 249.3zM512 73.274c-35.278 0-63.86 28.582-63.86 63.86s28.582 63.86 63.86 63.86 63.86-28.582 63.86-63.86-28.582-63.86-63.86-63.86z" />
<glyph unicode="&#xe069;" glyph-name="volume" d="M84.97 196.236h140.004c11.040-10.98 265.428-225.106 265.428-225.106 15.31-9.272 28.306-11.956 39.41-10.918 22.572 2.134 38.432 21.048 43.252 40.996 0.244 1.952 0.244 891.642-0.062 893.594-4.758 20.010-20.682 38.922-43.192 41.056-11.102 1.036-24.098-1.648-39.408-10.918 0 0-254.388-221.932-265.428-232.916h-140.004c-33.674 0-61.004-27.332-61.004-61.004v-373.774c0-33.736 27.33-61.004 61.004-61.004zM667.014 341.424c-15.068-7.626-21.108-25.928-13.542-40.996 5.368-10.614 16.104-16.774 27.208-16.774 4.636 0 9.272 1.038 13.726 3.232 61.676 31.114 99.986 92.788 99.986 161.114s-38.312 130-99.986 161.114c-15.068 7.626-33.308 1.524-40.934-13.542-7.564-15.068-1.524-33.37 13.542-40.996 40.934-20.62 66.374-61.43 66.374-106.576s-25.44-85.956-66.374-106.576zM625.042 97.894c2.866-14.578 15.616-24.648 29.894-24.648 1.952 0 3.904 0.182 5.918 0.548 178.864 34.894 308.684 192.288 308.684 374.202s-129.818 339.306-308.746 374.202c-16.288 3.294-32.576-7.564-35.75-24.098-3.232-16.53 7.564-32.576 24.098-35.81 150.316-29.284 259.39-161.48 259.39-314.296s-109.076-285.012-259.39-314.296c-16.53-3.232-27.332-19.276-24.098-35.81z" />
<glyph unicode="&#xe06a;" glyph-name="quote-fill" d="M512 943.996c-273.914 0-495.996-222.082-495.996-495.996s222.082-495.996 495.996-495.996 495.996 222.082 495.996 495.996-222.082 495.996-495.996 495.996zM760.804 457.052c-3.844-63.612-32.55-158.842-147.436-251.532-5.518-4.402-11.966-6.572-18.414-6.572-8.99 0-17.856 4.154-23.746 12.090-10.168 13.64-7.812 33.232 5.332 43.772 93.558 75.454 119.164 149.358 123.69 200.072-13.206-7.688-28.148-12.4-44.33-12.4-50.468 0-91.326 42.47-91.326 94.86s40.858 94.86 91.326 94.86c11.408 0 21.886-2.976 31.868-7.006l-0.372 0.744c0 0 4.402-1.612 10.54-5.022 0.31-0.186 0.62-0.248 0.93-0.372 0.186-0.124 0.31-0.248 0.496-0.372 4.216-2.418 9.052-5.642 14.446-10.23 2.294-1.984 4.216-4.278 6.324-6.448 22.506-22.382 47.182-65.1 40.672-146.444zM355.264 442.482c-50.468 0-91.326 42.47-91.326 94.86s40.92 94.86 91.326 94.86c11.408 0 21.886-2.976 31.868-7.006l-0.31 0.744c0 0 4.402-1.612 10.54-5.022 0.31-0.186 0.62-0.248 0.93-0.372 0.186-0.124 0.31-0.248 0.496-0.372 4.216-2.418 9.052-5.642 14.446-10.23 2.294-1.984 4.216-4.278 6.324-6.448 22.506-22.382 47.244-65.1 40.672-146.506-3.844-63.612-32.55-158.842-147.436-251.532-5.518-4.402-11.966-6.572-18.414-6.572-8.99 0-17.856 4.154-23.746 12.090-10.168 13.64-7.812 33.232 5.332 43.772 93.558 75.454 119.164 149.358 123.69 200.072-13.268-7.564-28.21-12.338-44.392-12.338z" />
<glyph unicode="&#xe072;" glyph-name="lightbulb" d="M802.486 496.794c3.928 10.44 7.132 21.296 9.924 32.15 0.516 1.86 1.138 3.618 1.55 5.478 2.482 10.234 4.238 20.572 5.686 31.116 0.31 2.378 0.93 4.858 1.24 7.236 1.448 12.716 2.274 25.534 2.274 38.56 0 182.354-148.034 330.7-329.872 330.7s-329.872-148.344-329.872-330.7c0-12.922 0.828-25.844 2.378-38.456 0.31-2.482 0.828-4.858 1.138-7.236 1.448-10.44 3.204-20.882 5.686-31.116 0.414-1.86 1.034-3.722 1.55-5.478 2.792-10.854 6.1-21.708 9.924-32.15 0.414-1.034 0.828-1.964 1.138-2.998 4.342-11.268 9.2-22.33 14.782-33.080 0.206-0.414 0.414-0.828 0.62-1.24 5.79-11.164 12.198-21.916 19.228-32.356 0.206-0.31 0.414-0.62 0.62-0.93 6.822-10.234 14.37-19.952 22.33-29.358 0.62-0.724 1.24-1.448 1.964-2.274 7.236-8.476 15.092-16.436 23.26-24.19 1.86-1.758 3.514-3.412 5.376-5.066 2.378-2.17 4.548-4.548 7.132-6.72 1.448-1.24 3.308-2.068 4.962-3.102 5.478-4.548 10.648-9.304 16.436-13.438 2.274-1.654 3.722-3.204 5.686-4.858 37.938-31.53 19.434-90.66 61.612-90.66 5.892 0 192.9 0 248.308 0 42.178 0 23.674 59.13 61.716 90.66 1.964 1.654 3.412 3.204 5.686 4.858 5.79 4.238 10.958 8.89 16.436 13.438 1.55 1.138 3.412 1.86 4.962 3.102 2.482 2.068 4.652 4.548 7.132 6.72 1.86 1.654 3.618 3.412 5.376 5.066 8.166 7.754 15.92 15.714 23.26 24.19 0.62 0.724 1.24 1.448 1.964 2.274 7.96 9.408 15.402 19.228 22.33 29.358 0.206 0.31 0.414 0.62 0.62 0.93 7.030 10.44 13.336 21.192 19.124 32.356 0.206 0.414 0.414 0.828 0.62 1.24 5.582 10.752 10.44 21.812 14.782 33.080 0.104 1.034 0.516 1.964 0.93 2.894v0zM677.402 621.052c-14.37 0-26.050 11.682-26.050 26.050 0 79.29-71.536 132.632-130.15 132.632-14.37 0-26.050 11.682-26.050 26.050s11.682 26.050 26.050 26.050c89.524 0 182.252-65.954 182.252-184.63-0.104-14.472-11.682-26.154-26.050-26.154zM490.188 15.578h-114.438l93.866-47.966c7.444-3.824 15.61-5.686 23.674-5.686s16.126 1.86 23.466 5.582l95.21 48.174-121.776-0.104zM651.35 88.046c0 14.37-11.682 26.050-26.050 26.050h-260.3c-14.37 0-26.050-11.682-26.050-26.050s11.682-26.050 26.050-26.050h260.3c14.37 0 26.050 11.682 26.050 26.050zM651.35 181.6c0 14.37-11.682 26.050-26.050 26.050h-260.3c-14.37 0-26.050-11.682-26.050-26.050s11.682-26.050 26.050-26.050h260.3c14.37 0 26.050 11.682 26.050 26.050z" />
<glyph unicode="&#xe07c;" glyph-name="tags" d="M910.274 936.006c-0.548 0-1.098 0-1.648 0-0.488 0-0.914 0.062-1.404 0h-322.51c-9.332-0.488-30.562-15.068-33.306-17.812l-388.272-388.21c-23.79-23.79-23.79-62.342 0-86.132l48.434-48.434-48.434-48.434c-23.79-23.79-23.79-62.342 0-86.132l283.408-283.408c11.894-11.894 27.45-17.812 43.066-17.812s31.172 5.918 43.066 17.812l388.21 388.272c2.806 2.746 18.116 21.534 18.116 33.246v506.734c0.854 17.018-12.018 30.316-28.73 30.316zM847.504 875.25c16.836 0 30.5-13.664 30.5-30.5s-13.664-30.5-30.5-30.5-30.5 13.664-30.5 30.5 13.664 30.5 30.5 30.5zM877.82 408.778l-388.088-388.27-283.408 283.288 48.434 48.434 191.848-191.848c11.894-11.894 27.45-17.812 43.066-17.812s31.172 5.918 43.066 17.812l345.262 345.324v-96.44c-0.182-0.304-0.304-0.488-0.182-0.488-0.062 0-0.062 0 0 0z" />
<glyph unicode="&#xe07f;" glyph-name="mic" d="M448 134.144v-134.144h-96c-17.664 0-32-14.336-32-32s14.336-32 32-32h320c17.664 0 32 14.336 32 32s-14.336 32-32 32h-96v134.528c133.312 26.304 256 134.208 256 313.472v96c0 17.664-14.336 32-32 32s-32-14.336-32-32v-96c0-168.064-128.832-256-256-256-123.328 0-256 80.128-256 256v96c0 17.664-14.336 32-32 32s-32-14.336-32-32v-96c0-181.76 120.512-288.384 256-313.856zM512 320c70.72 0 128 57.28 128 128v384c0 70.72-57.28 128-128 128s-128-57.28-128-128v-384c0-70.72 57.28-128 128-128z" />
<glyph unicode="&#xe081;" glyph-name="location" d="M488.704-46.656c5.376-5.952 10.56-9.792 15.552-12.48 0.064-0.064 0.192-0.064 0.256-0.128 3.456-1.792 6.848-3.136 10.048-3.136s6.592 1.344 10.048 3.136c0.064 0.064 0.192 0.064 0.256 0.128 4.992 2.688 10.176 6.528 15.552 12.48 0 0 297.472 323.52 327.36 603.84 1.792 14.464 3.008 29.12 3.008 44.032 0 198.144-160.64 358.784-358.784 358.784s-358.784-160.64-358.784-358.784c0-15.168 1.216-29.952 3.072-44.608 30.656-280.192 332.416-603.264 332.416-603.264zM512 832c127.232 0 230.784-103.552 230.784-230.784s-103.552-230.784-230.784-230.784-230.784 103.552-230.784 230.784c0 127.232 103.552 230.784 230.784 230.784z" />
<glyph unicode="&#xe082;" glyph-name="pushpin" d="M256 335.552c0-49.088 123.52-75.136 256.064-78.784 0-0.256-0.064-0.512-0.064-0.768v-192c0-35.328 14.336-128 32-128s32 92.672 32 128v192c0 0.256-0.064 0.512-0.064 0.768 132.544 3.648 256.064 29.696 256.064 78.784 0 52.096-47.168 90.112-128 110.592v331.456c80.832 27.392 128 71.488 128 102.848 0 106.048-576 106.048-576 0 0-34.496 47.168-77.632 128-104v-330.304c-80.832-20.544-128-58.496-128-110.592z" />
<glyph unicode="&#xe083;" glyph-name="map" d="M315.926 785.926l-267.928 126.076v-795.434l267.928-126.076zM382.212-8.58l263.752 118.852v795.434l-263.752-118.852zM712.25 108.88l263.752-124.884v795.434l-263.752 124.884z" />
<glyph unicode="&#xe084;" glyph-name="drawer" d="M896 832c-17.984 40-50.624 64-86.016 64h-601.984c-35.328 0-64-24-80-64l-128-512v-289.024c0-17.664 14.336-32 32-32h960c17.664 0 32 14.336 32 32v285.056l-0.832 2.944-127.168 513.024zM188.48 810.688c2.944 6.592 10.432 21.312 19.52 21.312h601.984c8.768 0 18.88-9.024 25.984-22.784l112.704-458.048c0-0.128-0.192 0-0.192-0.128 0-17.664-14.336-32-32-32-0.064 0-0.064-0.064-0.128-0.064h-244.352c-17.664 0-32-14.336-32-32v-62.976c0-17.664-14.336-32-32-32-0.64 0-1.28-0.832-1.92-1.024h-188.992c-0.448 0.192-0.448 1.024-1.088 1.024-17.664 0-32 14.336-32 32v62.976c0 17.664-14.336 32-32 32h-244.352c-0.064 0-0.064 0.064-0.128 0.064-17.664 0-32.512 14.336-32.512 32 0 0.448-0.512 0.128-0.64 0.448l114.112 459.2z" />
<glyph unicode="&#xe086;" glyph-name="book" d="M172.304-47.996h586.206c34.224 0 62 27.776 62 62v650.996c0 17.112-13.888 31-31 31 0 0 0 0 0 0h-525.508c-1.55 0-4.588-0.248-7.502-0.434l-84.196 0.434c-52.018 0-94.302 39.742-94.302 91.698 0 52.018 40.982 94.302 93 94.302h712.996v-712.996c0-17.112 12.4-31 29.574-31s32.426 13.888 32.426 31v743.996c0 17.112-15.314 31-32.426 31h-741.268c-85.56 0-154.814-68.758-156.054-154.008l-0.248 0.31v-681.996c0-86.304 69.998-156.3 156.3-156.3z" />
<glyph unicode="&#xe087;" glyph-name="contacts" d="M92.004 927.992c-33.12 0-60-26.88-60-60v-839.988c0-33.12 26.88-60 60-60h60v959.988h-60zM811.996 927.992h-599.992v-959.988h599.992c33.12 0 60 26.88 60 60v839.988c0 33.12-26.88 60-60 60zM538.7 696.756c50.16 0 90.78-40.68 90.78-90.78 0-50.16-40.68-90.84-90.78-90.84-50.16 0-90.84 40.68-90.84 90.84s40.68 90.78 90.84 90.78zM392 279.584c0 110.040 66.54 199.196 148.558 199.196s148.558-89.22 148.558-199.196-297.116-109.98-297.116 0zM931.996 867.996h60v-179.996h-60zM931.996 627.996h60v-179.996h-60zM931.996 388h60v-179.996h-60z" />
<glyph unicode="&#xe088;" glyph-name="archive" d="M960 832h-896c-35.328 0-64-28.672-64-64v-128h1024v128c0 35.328-28.672 64-64 64zM64 0c0-35.328 28.672-64 64-64h768c35.328 0 64 28.672 64 64v576h-896v-576zM384 448h256c35.328 0 64-28.672 64-64s-28.672-64-64-64h-256c-35.328 0-64 28.672-64 64s28.672 64 64 64z" />
<glyph unicode="&#xe08c;" glyph-name="grid" d="M178.664 514.668h200.002c36.8 0 66.668 29.866 66.668 66.668v200.002c0 36.8-29.866 66.668-66.668 66.668h-200.002c-36.8 0-66.668-29.866-66.668-66.668v-200.002c0-36.8 29.866-66.668 66.668-66.668zM645.334 514.668h200.002c36.8 0 66.668 29.866 66.668 66.668v200.002c0 36.8-29.866 66.668-66.668 66.668h-200.002c-36.8 0-66.668-29.866-66.668-66.668v-200.002c0-36.8 29.866-66.668 66.668-66.668zM111.996 114.664c0-36.8 29.866-66.668 66.668-66.668h200.002c36.8 0 66.668 29.866 66.668 66.668v200.002c0 36.8-29.866 66.668-66.668 66.668h-200.002c-36.8 0-66.668-29.866-66.668-66.668v-200.002zM578.668 114.664c0-36.8 29.866-66.668 66.668-66.668h200.002c36.8 0 66.668 29.866 66.668 66.668v200.002c0 36.8-29.866 66.668-66.668 66.668h-200.002c-36.8 0-66.668-29.866-66.668-66.668v-200.002z" />
<glyph unicode="&#xe08e;" glyph-name="music" d="M55.232 13.648c44.948-58.352 137.792-62.136 207.38-8.532 28.304 21.812 47.896 49.816 58.772 79.204 6.248 12.38 10.336 29.928 10.336 49.996v449.076l540.84 102.22v-237.128c0-83.648-64-102.88-86.656-107.148-1.984-0.24-3.908-0.72-5.888-1.080-1.020-0.12-2.524-0.3-2.524-0.3l0.36-0.12c-26.8-4.868-53.784-16.104-78-34.732-69.588-53.604-89.6-144.344-44.648-202.696s137.792-62.196 207.38-8.592c35.216 27.164 57.628 63.82 65.44 100.956 2.704 9.014 4.628 18.928 4.628 30.168v583.264c0 3.664-0.72 6.792-1.020 10.276 0.12 1.804 1.020 3.846 1.020 5.648v60.092c0 33.172-26.92 51.92-60.092 41.764l-540.84-102.22c-33.172-10.096-60.092-45.252-60.092-78.42v-60.092c0-0.84 0.42-1.444 0.48-2.224-0.060-1.804-0.48-3.364-0.48-5.168v-318.132c0-83.77-64.18-102.94-86.776-107.148-1.14-0.18-2.284-0.54-3.484-0.72-2.944-0.48-4.868-0.66-4.868-0.66l0.66-0.3c-26.56-4.988-53.304-16.104-77.28-34.552-69.588-53.604-89.54-144.344-44.648-202.696z" />
<glyph unicode="&#xe0d8;" glyph-name="wallet" d="M690.598 269.402v178.598c0 32.862 26.672 59.532 59.532 59.532h178.598v119.064c0 32.862-26.672 59.532-59.532 59.532h-68.344l-29.052 172.584c-1.308 7.86-5.776 14.884-12.264 19.408-6.548 4.584-14.704 6.192-22.504 4.94l-587.648-108.112c-7.8-1.428-14.764-5.952-19.228-12.56s-6.132-14.704-4.524-22.564l10.656-53.7h-41.018c-32.862 0-59.532-26.672-59.532-59.532v-535.794c0-32.862 26.672-59.532 59.532-59.532h773.924c32.862 0 59.532 26.672 59.532 59.532v119.064h-178.598c-32.862 0-59.532 26.672-59.532 59.532zM189.868 721.852l528.232 97.216 22.384-132.936h-543.532l-7.084 35.72zM958.496 448h-208.364v-178.598h208.364c16.432 0 29.768 13.336 29.768 29.768v119.064c0 16.432-13.336 29.768-29.768 29.768zM839.428 328.936c-16.432 0-29.768 13.336-29.768 29.768s13.336 29.768 29.768 29.768 29.768-13.336 29.768-29.768c0-16.432-13.336-29.768-29.768-29.768z" />
<glyph unicode="&#xe0df;" glyph-name="flowchart" d="M960 320v128c0 35.328-28.672 64-64 64h-320v128h192c35.328 0 64 28.672 64 64v64c0 35.328-28.672 64-64 64h-448c-35.328 0-64-28.672-64-64v-64c0-35.328 28.672-64 64-64h192v-128h-320c-35.328 0-64-28.672-64-64v-128c-35.328 0-64-28.672-64-64v-128c0-35.328 28.672-64 64-64h64c35.328 0 64 28.672 64 64v128c0 35.328-28.672 64-64 64v128h320v-128c-35.328 0-64-28.672-64-64v-128c0-35.328 28.672-64 64-64h64c35.328 0 64 28.672 64 64v128c0 35.328-28.672 64-64 64v128h320v-128c-35.328 0-64-28.672-64-64v-128c0-35.328 28.672-64 64-64h64c35.328 0 64 28.672 64 64v128c0 35.328-28.672 64-64 64z" />
<glyph unicode="&#xe0e1;" glyph-name="hourglass" d="M806.996 605.762v255.23h29.086c16.52 0 29.914 13.216 29.914 29.5s-13.394 29.5-29.914 29.5h-589.164c-16.52 0-29.914-13.216-29.914-29.5s13.394-29.5 29.914-29.5h29.086v-255.23c0-16.814 7.198-32.862 19.764-44.072l127.558-113.694-127.558-113.692c-12.568-11.21-19.764-27.258-19.764-44.072v-255.23h-29.086c-16.52 0-29.914-13.216-29.914-29.5s13.394-29.5 29.914-29.5h589.222c16.462 0 29.854 13.216 29.854 29.5s-13.394 29.5-29.914 29.5h-29.086v255.23c0 16.816-7.198 32.864-19.764 44.072l-127.558 113.692 127.558 113.692c12.568 11.21 19.764 27.258 19.764 44.072zM747.996 605.762l-176.996-157.762 176.996-157.764v-255.23h-412.996v255.23l176.996 157.764-176.996 157.764v255.23h412.996v-255.23zM688.996 691.192v51.802h-294.996v-51.802l147.5-131.452zM394 204.572v-110.566h294.996v110.566l-74.516 66.434h-145.966z" />
<glyph unicode="&#xe0e3;" glyph-name="globe" d="M544 896c-265.088 0-480-214.912-480-480s214.912-480 480-480 480 214.912 480 480-214.912 480-480 480zM894.016 640h-95.36c-18.56 58.368-44.032 109.504-74.752 150.528 69.632-33.6 128.576-85.888 170.112-150.528zM576 640v186.752c60.48-17.856 119.424-84.928 155.712-186.752h-155.712zM750.336 576c9.024-39.168 14.848-82.048 16.704-128h-191.040v128h174.336zM512 826.752v-186.752h-155.712c36.288 101.824 95.232 168.896 155.712 186.752zM512 576v-128h-191.040c1.856 45.952 7.68 88.832 16.704 128h174.336zM256.96 448h-127.36c3.456 44.992 13.76 88.128 30.464 128h112.64c-8.576-40.512-13.952-83.328-15.744-128zM256.96 384c1.792-44.672 7.168-87.488 15.744-128h-112.64c-16.704 39.872-27.008 83.008-30.464 128h127.36zM320.96 384h191.040v-128h-174.336c-9.024 39.168-14.848 82.048-16.704 128zM512 192v-186.752c-60.48 17.856-119.424 84.928-155.712 186.752h155.712zM576 5.248v186.752h155.712c-36.288-101.824-95.232-168.896-155.712-186.752zM576 256v128h191.040c-1.856-45.952-7.68-88.832-16.704-128h-174.336zM831.040 384h127.36c-3.456-44.992-13.76-88.128-30.464-128h-112.64c8.576 40.512 13.952 83.328 15.744 128zM831.040 448c-1.792 44.672-7.168 87.488-15.744 128h112.64c16.704-39.872 27.008-83.008 30.464-128h-127.36zM364.096 790.528c-30.656-41.024-56.192-92.16-74.752-150.528h-95.36c41.536 64.64 100.48 116.928 170.112 150.528zM193.984 192h95.36c18.56-58.368 44.032-109.504 74.752-150.528-69.632 33.6-128.576 85.888-170.112 150.528zM723.904 41.472c30.656 41.024 56.192 92.16 74.752 150.528h95.36c-41.536-64.64-100.48-116.928-170.112-150.528z" />
<glyph unicode="&#xe0e5;" glyph-name="drive" d="M128-64h768c70.72 0 128 57.28 128 128v64c0 3.008-0.704 5.824-0.896 8.704 0.192 3.264 0.896 6.976 0.896 9.984l-64 685.312c-3.968 62.656-57.28 128-128 128h-640c-70.72 0-124.032-65.344-128-128l-64-685.312c0-3.008 0.704-6.72 0.896-9.92-0.192-2.944-0.896-5.76-0.896-8.768v-64c0-70.72 57.28-128 128-128zM64 64v64c0 35.264 28.736 64 64 64h768c35.264 0 64-28.736 64-64v-64c0-35.264-28.736-64-64-64h-768c-35.264 0-64 28.736-64 64zM832 96c0-17.674 14.326-32 32-32s32 14.326 32 32c0 17.674-14.326 32-32 32s-32-14.326-32-32zM710.656 97.344c0-17.674 14.326-32 32-32s32 14.326 32 32c0 17.674-14.326 32-32 32s-32-14.326-32-32zM160 64h448c17.664 0 32 14.336 32 32s-14.336 32-32 32h-448c-17.664 0-32-14.336-32-32s14.336-32 32-32z" />
<glyph unicode="&#xe0e7;" glyph-name="calculator" d="M192-64h640c35.328 0 64 28.672 64 64v896c0 35.328-28.672 64-64 64h-640c-35.328 0-64-28.672-64-64v-896c0-35.328 28.672-64 64-64zM704 256c-35.328 0-64 28.672-64 64s28.672 64 64 64 64-28.672 64-64c0-35.328-28.672-64-64-64zM768 128c0-35.328-28.672-64-64-64s-64 28.672-64 64c0 35.328 28.672 64 64 64s64-28.672 64-64zM704 448c-35.328 0-64 28.672-64 64s28.672 64 64 64 64-28.672 64-64c0-35.328-28.672-64-64-64zM256 704v128h512v-128h-512zM512 256c-35.328 0-64 28.672-64 64s28.672 64 64 64 64-28.672 64-64c0-35.328-28.672-64-64-64zM576 128c0-35.328-28.672-64-64-64s-64 28.672-64 64c0 35.328 28.672 64 64 64s64-28.672 64-64zM512 448c-35.328 0-64 28.672-64 64s28.672 64 64 64 64-28.672 64-64c0-35.328-28.672-64-64-64zM320 576c35.328 0 64-28.672 64-64s-28.672-64-64-64-64 28.672-64 64c0 35.328 28.672 64 64 64zM320 384c35.328 0 64-28.672 64-64s-28.672-64-64-64-64 28.672-64 64c0 35.328 28.672 64 64 64zM320 192c35.328 0 64-28.672 64-64s-28.672-64-64-64-64 28.672-64 64c0 35.328 28.672 64 64 64z" />
<glyph unicode="&#xe0f3;" glyph-name="currency" d="M544 896c-265.088 0-480-214.912-480-480s214.912-480 480-480 480 214.912 480 480-214.912 480-480 480zM598.848 448c93.248 0 169.152-71.744 169.152-160s-75.904-160-169.152-160h-22.848v-32c0-17.664-14.336-32-32-32s-32 14.336-32 32v32h-22.848c-93.248 0-169.152 71.744-169.152 160 0 17.664 14.336 32 32 32s32-14.336 32-32c0-52.928 47.168-96 105.152-96h22.848v192h-22.848c-93.248 0-169.152 71.744-169.152 160s75.904 160 169.152 160h22.848v32c0 17.664 14.336 32 32 32s32-14.336 32-32v-32h22.848c93.248 0 169.152-71.744 169.152-160 0-17.664-14.336-32-32-32s-32 14.336-32 32c0 52.928-47.168 96-105.152 96h-22.848v-192h22.848zM384 544c0-52.928 47.168-96 105.152-96h22.848v192h-22.848c-57.984 0-105.152-43.072-105.152-96zM598.848 192c57.984 0 105.152 43.072 105.152 96s-47.168 96-105.152 96h-22.848v-192h22.848z" />
<glyph unicode="&#xe0f7;" glyph-name="searching" d="M64 0h576c35.328 0 64 28.672 64 64v86.4c13.632 6.528 26.368 14.336 38.336 23.36l196.416-196.416c6.272-6.272 14.464-9.344 22.656-9.344s16.384 3.136 22.656 9.344c12.48 12.48 12.48 32.768 0 45.248l-196.544 196.544c27.584 37.248 44.48 82.944 44.48 132.864 0 89.216-52.544 165.568-128 201.6v342.4c0 35.328-28.672 64-64 64h-576c-35.328 0-64-28.672-64-64v-832c0-35.328 28.672-64 64-64zM608 192c-88.192 0-160 71.808-160 160s71.808 160 160 160 160-71.808 160-160-71.808-160-160-160zM544 704h-384c-17.664 0-32 14.336-32 32s14.336 32 32 32h384c17.664 0 32-14.336 32-32s-14.336-32-32-32zM160 576h384c6.208 0 11.648-2.24 16.512-5.248-41.856-9.088-79.36-29.824-108.928-58.752h-291.584c-17.664 0-32 14.336-32 32s14.336 32 32 32zM160 384h227.2c-1.472-10.56-3.2-21.056-3.2-32s1.728-21.44 3.2-32h-227.2c-17.664 0-32 14.336-32 32s14.336 32 32 32z" />
<glyph unicode="&#xe0fd;" glyph-name="building" d="M64-64h832c35.328 0 64 28.672 64 64v384c0 35.328-28.672 64-64 64h-192c-35.328 0-64-28.672-64-64v512c0 35.328-28.672 64-64 64h-192c-35.328 0-64-28.672-64-64v-256c0 35.328-28.672 64-64 64h-192c-35.328 0-64-28.672-64-64v-640c0-35.328 28.672-64 64-64zM64 0v128h64v-128h-64zM128 384v-64h-64v64h64zM64 448v64h64v-64h-64zM128 256v-64h-64v64h64zM192 320v64h64v-64h-64zM256 256v-64h-64v64h64zM192 448v64h64v-64h-64zM192 0v128h64v-128h-64zM256 576h-64v64h64v-64zM128 576h-64v64h64v-64zM512 0v128h64v-128h-64zM448 640v-64h-64v64h64zM384 704v64h64v-64h-64zM448 512v-64h-64v64h64zM448 384v-64h-64v64h64zM448 256v-64h-64v64h64zM512 320v64h64v-64h-64zM576 256v-64h-64v64h64zM512 448v64h64v-64h-64zM512 576v64h64v-64h-64zM512 704v64h64v-64h-64zM576 832h-64v64h64v-64zM448 832h-64v64h64v-64zM384 128h64v-128h-64v128zM768 192h-64v64h64v-64zM832 256h64v-64h-64v64zM832 128h64v-128h-64v128zM896 320h-64v64h64v-64zM768 320h-64v64h64v-64zM704 128h64v-128h-64v128z" />
<glyph unicode="&#xe600;" glyph-name="logo" d="M639.216 539.552c2.808 9.214 10.004 33.756 21.556 73.668 2.808 10.472 9.97 31.202 21.52 62.222 11.516 32.028 20.73 57.688 27.64 77.014-20.298-13.64-40.882-31.706-61.792-54.162-74.64-80.47-161.334-177.744-192.032-228.774 11.734 2.88 35.086 27.424 109.51 52.938 47.468 16.268 73.596 17.094 73.596 17.094v0zM625.972 488.198c-235.36 0-338.034-375.208-501.238-375.208-36.996 0-65.678 16.626-85.904 49.88-12.956 21.232-19.468 45.49-19.468 72.73 0 68.414 32.318 154.748 96.986 258.968 55.132 88.71 113.252 160.112 174.432 214.272 52.938 46.568 98.248 69.816 135.926 69.816 21.234 0 37.536-7.594 48.942-22.816 9.176-12.020 13.784-26.596 13.784-43.726 0-30.734-10.294-65.75-30.806-105.084-17.994-33.9-40.45-64.346-67.298-91.264-17.706-17.418-31.598-26.164-41.71-26.164-6.656 0-12.774 3.31-18.498 9.968-4.102 4.786-6.154 10.148-6.154 16.158 0 11.12 9.646 23.788 28.934 38.038 27.206 20.298 48.836 42.5 64.956 66.578 23.716 34.874 35.558 64.346 35.558 88.458 0 9.788-2.124 17.092-6.406 21.846-4.284 4.75-10.69 7.090-19.252 7.090-17.418 0-42.106-12.668-74.098-38.038-36.42-28.502-74.89-67.332-115.412-116.456-51.606-62.438-90.832-123.906-117.754-184.474-27.854-62.726-41.78-116.312-41.78-160.722 0-21.232 6.154-39.298 18.498-54.198 13.568-16.808 30.194-25.91 49.772-25.156 74.568 2.736 167.522 172.956 196.204 212.506 284.554 392.736 306.218 393.778 349.332 434.626 25.010 24.076 44.23 36.13 57.51 36.13 8.278 0 15.404-3.346 21.448-9.968 5.074-6.010 7.594-12.668 7.594-19.972 0-8.854-4.426-24.4-13.28-46.568-15.188-38.976-29.726-80.614-43.654-124.986-12.020-39.298-20.118-69.42-24.22-90.33 5.722 0 9.536 0.144 11.374 0.502 9.176 0.288 16.77 0.468 22.778 0.468 18.352 0 27.53-6.946 27.53-20.91 0-6.010-1.98-11.948-5.902-17.812-3.958-5.866-8.422-9.464-13.496-10.726-1.908-0.648-7.090-0.938-15.618-0.938-17.994 0-31.418-1.116-40.234-3.31-3.346-9.968-11.984-94.576-24.832-97.456-39.694-34.476-36.744 77.014-34.548 88.242v0zM392.592 231.534c10.366 0 19.216-3.634 26.524-10.904s10.976-16.122 10.976-26.486c0-10.4-3.67-19.288-10.976-26.632s-16.196-11.014-26.524-11.014c-10.4 0-19.216 3.672-26.56 11.014s-11.012 16.23-11.012 26.632c0 10.366 3.67 19.216 11.012 26.486 7.342 7.304 16.158 10.904 26.56 10.904v0zM622.158 331.038l-26.236-26.054c-16.626 17.562-35.988 26.342-58.084 26.342-19.326 0-35.486-6.37-48.476-19.144-13.028-12.774-19.542-28.322-19.542-46.604 0-18.93 6.766-34.944 20.262-48.082 13.496-13.134 30.158-19.722 49.988-19.722 12.848 0 23.716 2.698 32.568 8.134 8.852 5.434 15.942 13.928 21.412 25.48h-56.788v34.98h98.644l0.252-8.24c0-17.166-4.462-33.432-13.316-48.764-8.924-15.366-20.442-27.098-34.584-35.198s-30.734-12.128-49.808-12.128c-20.332 0-38.544 4.426-54.486 13.244-15.978 8.852-28.61 21.448-37.894 37.788-9.286 16.374-13.964 34.008-13.964 52.938 0 25.982 8.602 48.548 25.768 67.73 20.37 22.852 46.892 34.26 79.534 34.26 17.13 0 33.072-3.168 47.936-9.5 12.524-5.364 24.794-14.502 36.816-27.458v0zM742.79 367.962c27.746 0 51.606-10.040 71.544-30.158 19.972-20.082 29.942-44.518 29.942-73.416 0-28.61-9.826-52.83-29.51-72.658-19.722-19.828-43.582-29.726-71.688-29.726-29.438 0-53.908 10.148-73.344 30.554-19.468 20.298-29.222 44.482-29.222 72.514 0 18.75 4.498 35.988 13.604 51.714 9.068 15.764 21.556 28.178 37.392 37.392s32.966 13.784 51.282 13.784v0zM742.25 331.364c-18.1 0-33.288-6.298-45.596-18.894s-18.498-28.682-18.498-48.116c0-21.7 7.774-38.832 23.248-51.462 12.056-9.86 25.876-14.792 41.458-14.792 17.634 0 32.64 6.408 45.056 19.182 12.38 12.774 18.642 28.574 18.642 47.288 0 18.678-6.26 34.442-18.75 47.36s-27.64 19.432-45.562 19.432v0zM844.996 363.068h38.362l49.268-139.308 50.312 139.308h38.22l-70.75-196.134h-36.024l-69.384 196.134z" />
<glyph unicode="&#xe601;" glyph-name="home" d="M951.086 459.298c0-15.136-12.316-27.496-27.496-27.496-7.062 0-13.364 2.822-18.12 7.19l-394.516 394.516-0.562-0.562-0.12 0.076-394.074-394.030c-4.802-4.314-11.104-7.148-18.12-7.148-15.18 0-27.496 12.348-27.496 27.496 0 7.632 3.070 14.488 8.108 19.462v0l412.682 412.726c5.006 5.006 11.87 8.076 19.462 8.076 7.546 0 14.456-3.070 19.376-8.076l412.76-412.762c5.082-4.92 8.11-11.786 8.11-19.462zM841.038 379.614v-305.424c0-30.436-24.62-55.066-55.066-55.066h-192.596v275.066h-165.144v-275.108h-192.556c-30.436 0-55.066 24.62-55.066 55.066v305.424l330.206 330.25 330.206-330.206z" />
<glyph unicode="&#xe602;" glyph-name="menu" d="M951.15 683.096c0-37.292-28.104-67.556-62.726-67.556h-752.846c-34.656 0-62.726 30.266-62.726 67.556v8.444c0 37.292 28.104 67.556 62.726 67.556h752.814c34.622 0 62.726-30.266 62.726-67.556v-8.444zM951.15 450.872c0-37.292-28.104-67.556-62.726-67.556h-752.846c-34.656 0-62.726 30.266-62.726 67.556v8.444c0 37.292 28.104 67.556 62.726 67.556h752.814c34.622 0 62.726-30.266 62.726-67.556v-8.444zM951.15 218.646c0-37.292-28.104-67.556-62.726-67.556h-752.846c-34.656 0-62.726 30.266-62.726 67.556v8.444c0 37.292 28.104 67.556 62.726 67.556h752.814c34.622 0 62.726-30.266 62.726-67.556v-8.444z" />
<glyph unicode="&#xe603;" glyph-name="apps" d="M323 681.408c0-29.712-24.104-53.816-53.816-53.816h-100.952c-29.744 0-53.816 24.104-53.816 53.816v100.952c0 29.712 24.064 53.816 53.816 53.816h100.952c29.712 0 53.816-24.104 53.816-53.816v-100.952zM610.376 681.408c0-29.712-24.104-53.816-53.816-53.816h-100.952c-29.712 0-53.816 24.104-53.816 53.816v100.952c0 29.712 24.104 53.816 53.816 53.816h100.952c29.712 0 53.816-24.104 53.816-53.816v-100.952zM897.712 681.408c0-29.712-24.064-53.816-53.816-53.816h-100.952c-29.712 0-53.816 24.104-53.816 53.816v100.952c0 29.712 24.104 53.816 53.816 53.816h100.952c29.744 0 53.816-24.104 53.816-53.816v-100.952zM323 400.824c0-29.712-24.104-53.816-53.816-53.816h-100.952c-29.744 0-53.816 24.104-53.816 53.816v100.912c0 29.712 24.064 53.816 53.816 53.816h100.952c29.712 0 53.816-24.104 53.816-53.816v-100.912zM610.376 400.824c0-29.712-24.104-53.816-53.816-53.816h-100.952c-29.712 0-53.816 24.104-53.816 53.816v100.912c0 29.712 24.104 53.816 53.816 53.816h100.952c29.712 0 53.816-24.104 53.816-53.816v-100.912zM897.712 400.824c0-29.712-24.064-53.816-53.816-53.816h-100.952c-29.712 0-53.816 24.104-53.816 53.816v100.912c0 29.712 24.104 53.816 53.816 53.816h100.952c29.744 0 53.816-24.104 53.816-53.816v-100.912zM323 120.168c0-29.712-24.104-53.816-53.816-53.816h-100.952c-29.744 0-53.816 24.104-53.816 53.816v100.952c0 29.712 24.064 53.816 53.816 53.816h100.952c29.712 0 53.816-24.104 53.816-53.816v-100.952zM610.376 120.168c0-29.712-24.104-53.816-53.816-53.816h-100.952c-29.712 0-53.816 24.104-53.816 53.816v100.952c0 29.712 24.104 53.816 53.816 53.816h100.952c29.712 0 53.816-24.104 53.816-53.816v-100.952zM897.712 120.168c0-29.712-24.064-53.816-53.816-53.816h-100.952c-29.712 0-53.816 24.104-53.816 53.816v100.952c0 29.712 24.104 53.816 53.816 53.816h100.952c29.744 0 53.816-24.104 53.816-53.816v-100.952z" />
<glyph unicode="&#xe604;" glyph-name="search" d="M961.062 177.89l-30.178 25.048 0.16 0.16-95.792 77.384-135.216 111.922c27.736 49.606 42.028 104.588 42.028 160.306 0 83.326-31.97 166.616-96.36 230.886-62.842 62.884-146.088 93.552-230.802 93.552-175.372 0-324.394-149.064-324.394-324.432 0-176.84 146.17-325.818 322.886-325.818 65.692 0 131.344 19.71 187.51 58.038l139.082-115.218 95.302-76.976-0.084-0.084 32.744-27.124c16.044-13.36 39.836-11.078 52.988 4.932l45.168 54.452c13.28 15.968 10.918 39.706-5.050 52.988zM557.982 410.98c-39.342-39.426-90.538-58.404-143.074-58.404-106.748 0-198.75 90.578-198.75 200.136 0 106.71 90.58 198.75 198.75 198.75 111.024 0 201.478-90.62 201.478-198.75 0-51.108-20.364-102.266-58.404-141.73z" />
<glyph unicode="&#xe605;" glyph-name="chat" d="M906.084 207.454c61.088 36.766 99.058 87.958 99.058 144.64 0 64.458-49.206 121.784-125.718 158.852-48.040-121.87-224.128-212.552-433.486-212.552-30.372 0-60.394 2.074-89.988 5.83 34.994-88.606 164.902-154.402 319.906-154.402 37.154 0 73.010 3.802 106.36 10.798 107.312-84.328 233.722-25.836 233.722-25.836-86.406-5.142-106.794 38.924-109.862 72.664zM857.268 594.192c0 139.194-188.184 252.472-419.528 252.472s-419.528-113.276-419.528-252.472c0-67.222 43.94-130.596 123.772-178.55l7.302-4.408-0.864-8.38c-2.938-32.746-18.746-83.508-84.804-101.654 17.106-3.068 36.766-5.23 57.844-5.23 63.376 0 119.93 19.178 168.14 57.026l4.968 3.846 6.094-1.21c9.89-2.116 20.132-3.674 30.24-5.27 0.044-0.476 0.044-0.952 0.086-1.384 32.574-4.712 65.836-7.26 99.534-7.26 200.798 0 369.376 84.116 414.78 197 0.476-0.214 0.996-0.346 1.466-0.562 6.784 18.058 10.498 36.722 10.498 56.034zM461.842 665.822c37.67 0 68.084-30.416 68.084-68.084s-30.416-68.084-68.084-68.084-68.084 30.414-68.084 68.084 30.416 68.084 68.084 68.084zM214.944 597.736c0 37.67 30.458 68.084 68.084 68.084s68.172-30.414 68.172-68.084-30.542-68.084-68.172-68.084-68.084 30.414-68.084 68.084zM640.696 529.652c-16.114 0-30.24 6.352-41.904 15.596-2.248 1.772-4.148 3.976-6.176 6.094v0c-12.052 12.052-20.174 27.91-20.174 46.4 0 37.67 30.542 68.084 68.216 68.084 37.588 0 68.084-30.416 68.084-68.084 0-14.906-5.744-27.91-13.822-39.096-12.4-17.15-31.538-28.988-54.216-28.988z" />
<glyph unicode="&#xe606;" glyph-name="capitol" d="M223.438 388.8c-0.554-1.662 3.166-5.462 3.166-5.462v-17.174c0 0-7.164-17.096 0-19.63 0 0 68.658 15.712 282.032 15.712 213.414 0 282.032-15.712 282.032-15.712 7.24 2.532 0 19.63 0 19.63v17.174c0 0 3.84 3.798 3.246 5.462-0.674 1.662 24.576 12.584 3.72 19.274-20.812 6.768-96.478 23.466-289 23.466s-268.106-16.702-288.96-23.466c-20.812-6.686 4.354-17.61 3.758-19.274zM450.86 775.502c0 0-6.964-6.412 0-9.694v-13.848c0 0 37.356 6.33 57.776 6.33 20.46 0 57.816-6.33 57.816-6.33v13.848c6.966 3.284 0 9.694 0 9.694s-4.354 5.146-7.798 7.084v48.278c0 0 1.702 7.122 0 10.962-1.74 3.916 23.466 12.268 0 21.25-23.504 9.062-33.082 10.328-50.020 10.328-16.978 0-26.514-1.264-49.976-10.328s1.74-17.332 0-21.25c-1.702-3.88 0-10.962 0-10.962v-48.278c-3.444-1.94-7.798-7.084-7.798-7.084zM548.842 903.558c0 0-4.354 13.258-12.188 13.732 0 0-10.010 7.124-9.578 16.464 0 0 3.006 1.224 3.006 6.65l-8.668 10.568h-23.664l-8.706-10.608c0-5.42 3.088-6.65 3.088-6.65 0.436-9.342-9.578-16.462-9.578-16.462-7.758-0.474-12.152-13.732-12.152-13.732v-7.834h78.394v7.874zM509.15 681.398c2.69-0.158 95.254-5.78 95.254 0.040 0 6.052-2.65 10.568-3.958 19.154-1.344 8.626 0 11.952 0 11.952s-18.794 18.362-90.858 18.362h-0.952c-72.062 0-90.82-18.362-90.82-18.362s1.344-3.324 0-11.952c-1.264-8.626-3.916-13.098-3.916-19.154 0-5.818 92.478-0.158 95.252-0.040zM511.446 471.664l274.99-12.86c0 0 2.018 36.686-9.062 40.524-4.75 1.584-11.952 8.39-30.71 16.226-0.87 2.058-2.058 3.798-3.84 4.472-6.092 2.336-29.562 143.61-234.23 143.61s-228.138-141.274-234.188-143.61c-2.572-0.952-3.958-4.116-4.786-7.4-14.008-6.568-19.984-11.952-24.1-13.336-11.12-3.88-9.098-40.524-9.098-40.524l275.028 12.902zM846.664 87.692l-2.098 95.29c0 0 6.966 15.196 2.532 26.118 0 0 19.982 15.274 8.706 31.302l-14.76 9.26 0.91 17.688c0 0-81.64 54.848-333.32 55.756-251.682-0.91-333.358-55.756-333.358-55.756l0.912-17.688-14.838-9.26c-11.24-16.028 8.744-31.302 8.744-31.302-4.39-10.922 2.652-26.118 2.652-26.118l-2.296-100.436c-20.498-20.538 5.898-50.336 5.898-50.336h670.044c0.076-0.040 31.776 35.26 0.278 55.48zM805.548 217.094v-118.244c-11.754 2.136-25.486 4.154-40.288 6.212v112.030h40.288zM723.91 217.094v-106.806c-13.174 1.504-26.71 2.968-40.288 4.354v102.452h40.288zM644.174 217.094v-98.534c-13.932 1.306-27.384 2.532-40.246 3.68v94.856h40.246zM564.476 217.094v-91.532c-16.898 1.344-30.986 2.492-40.288 3.166v88.326h40.288zM484.734 217.094v-89.432c-10.882-0.83-24.616-1.94-40.206-3.246v92.68h40.206zM405.074 217.094v-96.122c-13.022-1.148-26.476-2.454-40.286-3.756v99.842h40.286zM325.376 217.094v-103.878c-13.772-1.462-27.184-3.046-40.286-4.632v108.51h40.286zM248.96 217.094v-113.218c-16.026-2.336-30.154-4.632-41.944-7.046v120.26h41.944z" />
<glyph unicode="&#xe607;" glyph-name="state" d="M426.318 930.26c2.858-99.32 8.348-200.218 10.452-299.254 117.93-107.766 252.604-216.538 378.018-326.596 18.034-15.842 43.938-32.346 53.388-47.61 8.732-14.072 8.208-34.202 14.41-46.61 5.1-10.212 14.942-12.832 23.044-20.894 6.44-33.11-26.094-43.84-17.794-78.288-6.63-2.77-4.296-10.688-9.688-14.214 6.868-11.97 3.722-15.792 0.904-24.952 4.576-14.072 19.376-10.59 22.658-26.808-4.248-10.252-23.044-12.116-24.476-23.998-61.206-10.066-123.56-21.706-185.092-32.198-3.096 17.46-16.316 17.558-21.756 30.956 23.284 39.828-27.144 59.442-49.326 75.898-6.49 2.052-18.36-5.202-24.566-2.818-5.866 10.59 4.914 11.452 0.14 21.316-20.466 16.932-33.928 4.198-55.53 12.258-20.604 7.582-38.31 33.634-58.776 38.5-5.678 1.292-9.688-2.244-14.94-2.144-21.706 0.664-41.508 9.826-62.45 16.268-12.22 22.47-7.92 67.74-32.962 72.464-0.524 41.558-48.614 37.446-49.804 77.664-15.79 15.076-34.348 25.14-40.454 56.96 4.862 7.058 11.544 0.378 18.562 3.006 3.246 27.908-19.174 33.586-36.396 34.778-9.736 21.23-33.348 58.914-18.51 76.424 15.552 2.244 16.128-21.37 29.386-23.188 21.656-23.422 0.524 13.17-1.102 25.904 1.766 6.49 17.898 20.366 18.988 26.572-4.486 12.496-34.062 1.668-37.974 15.216-8.922-27.336-41.692-20.804-55.58-16.316-3.722 10.252 10.688 10.114 10.59 18.358-9.688 17.746-24.526 26.382-36.068 40.644 3.246 19.376-15.362 23.662-21.518 36.784-10.926 23.66 3.96 50.668-13.448 71.988 16.080 33.25-32.82 28.526-31.96 68.74 10.212 19.086 16.982 40.168 24.376 60.73-2.672 7.154 0.428 10.978-3.246 18.7 18.89 19.086 1.668 59.104 3.572 88.116 100.322 2.722 199.028 2.578 294.916-2.384z" />
<glyph unicode="&#xe608;" glyph-name="phone" d="M709.148 215.38c0 0-77.028 123.696-131.784 103.932-59.368-21.312-95.244-57.94-133.136-32.268-21.344 14.488-51.748 47.148-81.944 95.32l-0.044-0.076c-25.716 43.18-46.744 89.172-50.712 114.212-7.336 45.24 41.108 62.104 85.596 106.864 41.108 41.272-38.252 163.496-38.252 163.496s-45.076 87.94-97.62 73.528c-52.664-14.4-114.212-31.276-114.212-31.276s-129.364-38.656-20.036-272.988c53.012-113.492 81.388-170.604 116.316-223.692l0.196 0.076c27.776-46.308 78.728-113.896 158.492-209.292 165.872-198.38 255.6-97.544 255.6-97.544s41.348 48.608 76.744 90.12c35.364 41.424-25.204 119.564-25.204 119.564zM659.58 401.692c23.056 112.228-48.26 221.948-159.408 244.808l17.344 84.288c157.228-32.3 258.14-187.392 225.48-346.244l-83.416 17.148zM534.228 426.852c9.484 46.352-17.812 80.244-57.536 88.42l13.376 66.356c75.992-15.676 124.84-90.6 109.012-167.42l-64.84 12.656zM819.196 368.912c41.228 200.516-86.076 396.16-284.488 437.040l18.652 90.72c248.024-50.996 407.236-295.52 355.684-546.28l-89.848 18.532z" />
<glyph unicode="&#xe609;" glyph-name="email" d="M977.878 688.962c-2.732 42.056-36.042 75.368-78.1 78.146-1.822 0.088-3.6 0.548-5.422 0.548v-0.548l-766.208 0.548c-1.822 0-3.6-0.46-5.422-0.548-42.602-2.82-76.236-36.862-78.288-79.608-0.044-1.274-0.406-2.644-0.406-3.962s0.362-2.602 0.406-3.876v-544.892h933.4v543.388c0.132 1.822 0.592 3.556 0.592 5.378 0 1.866-0.408 3.6-0.548 5.422zM824.952 684.086l-313.82-267.208-313.728 267.208h627.548zM127.508 599.51c0.228 0 0.46-0.044 0.68-0.044v34.494l206.008-175.39-206.688-194.574v335.514zM169.746 217.794l207.83 206.832 133.602-116.788 134.422 117.566 206.74-207.654h-682.596zM894.9 264.042l-206.74 194.572 206.15 175.522v-34.634c0.23 0 0.408 0.044 0.592 0.044v-335.514z" />
<glyph unicode="&#xe60a;" glyph-name="calendar" d="M710.882 800.824v-92.954c0-37.872-30.808-68.592-68.592-68.592-37.874 0-68.634 30.718-68.634 68.592v92.952h-130.456v-92.952c0-37.874-30.718-68.592-68.592-68.592s-68.592 30.718-68.592 68.592v92.952h-216.92v-742.518h848.612v742.518h-226.816zM839.922 159.948h-653.058v414.56h653.058v-414.56zM374.562 690.446c20.324 0 36.876 16.462 36.876 36.876v184.164c0 20.368-16.508 36.876-36.876 36.876s-36.876-16.462-36.876-36.876v-184.206c0.044-20.324 16.508-36.83 36.876-36.83zM642.29 690.534c20.29 0 36.754 16.506 36.754 36.832v184.038c0 20.324-16.462 36.832-36.754 36.832-20.368 0-36.832-16.462-36.832-36.832v-184.038c0-20.324 16.462-36.832 36.832-36.832zM266.68 509.48h116.944v-116.9h-116.944v116.902zM266.68 347.106h116.944v-116.944h-116.944v116.944zM434.134 509.48h116.944v-116.9h-116.944v116.902zM601.422 509.48h116.944v-116.9h-116.944v116.902z" />
<glyph unicode="&#xe60b;" glyph-name="bear" horiz-adv-x="1040" d="M135.896 490.314c0-5.42 0-16.264-8.116-13.536-2.728 0-10.844 2.694-12.888 5.388 2.046 2.728-5.388 12.89 2.046 15.584 5.422-2.694 16.264-2.694 18.958-7.432v0zM909.098 319.69c-0.648 0.408-0.922 0.546-1.126 0.58 0.648-0.614 1.126-0.852 1.126-0.58zM1008.63 340.694c-31.846 65.672-29.12 115.114-23.698 180.788-8.116 54.828-44.702 102.226-83.948 144.2-52.818 54.828-138.812 57.558-209.908 36.586-112.386-12.89-207.144 110.34-316.836 31.812-50.122-47.396-94.792-97.484-152.348-125.924-18.276-8.082-39.246 12.89-57.558 7.468-18.276-2.694-21.004-23.016-26.392-33.86-7.468 0-7.468 12.89-18.276 8.116-21.004-5.388-18.276-26.392-18.276-44.668-7.466-13.538-25.742-21.004-31.164-34.574 0-39.246-47.396-49.408-65.672-81.254-5.422-4.74 2.694-10.126 2.694-15.548 12.888-20.97 41.976-28.438 65.706-25.744l-8.15-2.728c-8.116-8.116 2.694-18.276 10.808-23.698 10.162-8.116 28.438-2.694 41.292 0 21.004 10.162 29.12-13.504 47.43-8.116 18.276 5.422 41.942 21.004 62.98 8.116 10.808-10.808 41.94-10.808 33.824-31.812-12.854-23.050-25.71-49.442-41.942-70.412-23.050-29.12-60.284-23.698-83.266-50.088-2.694-4.774 0-12.89 0-18.31 7.432-5.386 2.046-7.432 25.71-10.126 23.698-2.728 115.796-2.728 136.766 2.694 4.774 2.046 7.466 4.74 7.466 4.74 33.858 34.54 54.83 71.094 92.064 104.952 21.004 5.386 21.004-21.004 39.282-31.164 0-39.246-52.818-23.664-65.672-60.25-2.728-5.422-2.728-8.116 2.694-13.538 20.97-4.74 41.976 0 62.978 0 25.71 0 54.796 2.694 75.834 2.694 26.392 13.538 65.672 94.792 44.702 146.928 20.97 10.196 46.714 5.422 70.412 5.422l2.694-2.694c2.694-23.698 26.392-44.702 20.97-73.788-7.432-41.292-62.98-28.438-73.14-67.718 0-5.386 0-10.808 2.728-13.504 31.13-10.162 67.684-2.046 102.226-2.046 20.97 0 41.976-2.694 54.828 12.856 20.97 54.828 33.826 102.226 75.834 146.928 5.422 0 13.538 2.728 13.538-2.694 25.708-23.698 49.408-33.86 78.528-52.818 4.74-7.466 2.728-10.162 0-15.582-29.12-28.438-73.788-36.552-81.254-70.378-2.694-8.116 0-8.116 4.774-10.842 39.246-7.432 83.948 0 123.196-2.694 23.698 2.694 37.27 23.698 52.818 41.976 10.162 18.276 25.744 39.246 25.744 65.672l-23.016 44.634zM542.104 251.29c-8.116-15.582-26.392-46.714-47.396-44.702-5.42 0-60.286-4.74-78.526-4.74-18.31 0-21.004 0-23.698 2.694 0 2.046 8.116 10.162 12.856 12.856 2.694 2.728 29.12 8.15 39.246 12.89 10.844 8.116 10.844 34.542 5.42 36.552-5.42 5.386-15.584 20.97-15.584 20.97s33.858 5.422 36.586 10.808c2.694 5.422 26.358 10.162 29.12 10.162 4.738 2.728 23.016 5.422 28.438 5.422 5.386-2.694 23.664 0 23.664 0s0 0 2.728-12.856c0.034-13.47-8.116-34.472-12.856-50.054zM840.698 382.634c-20.97-8.082-50.090-31.812-52.818-44.702-4.74-5.386-28.438-41.942-31.13-57.558-8.116-13.504-5.422-8.116-23.698-57.558-5.422-10.808-2.694-18.276-26.392-26.392-33.86 0-52.1 0-88.722-2.694-5.386 0-15.548 2.694-15.548 5.386 10.162 28.438 52.134 12.89 64.99 44.702 34.542 44.020-20.97 75.868-20.97 123.23 0 39.246 20.97 73.14 37.236 104.272 0 5.42-2.728 2.728-8.116 2.728-12.89-4.774-12.89-12.89-23.698-25.742-5.386-13.536-5.386-10.844-15.548-29.12-2.728-8.116-10.842 18.242-12.89 18.242 0 5.422-10.808-23.664-8.116-39.246 0-5.386-15.548 18.276-20.97 12.89 2.694-4.774 12.856-28.472 31.13-44.020-73.14 0-106.966-5.422-133.39 12.856-29.12 47.396-2.694-18.276-50.088-44.702-23.016-15.548-36.552-20.97-54.83-33.826-31.13-18.276-67.684-92.064-88.724-99.532-29.12-10.842-136.766-5.422-136.766-5.422 0 18.276 39.282 26.392 62.98 39.246 18.276 20.97 60.284 86.678 62.978 94.144l41.976 79.208c5.42 7.432 18.276 49.408 10.162 49.408 0 0-12.856-18.276-15.584-23.698-10.162-12.856-18.276-25.708-33.824-33.826 0 12.856 15.548 20.97 8.082 44.702-10.81-10.842-29.12-47.43-29.12-47.43-5.388-10.162-10.81-12.856-18.276-20.97l5.42 39.246c0 2.728-2.728 2.728-8.116 2.728-10.162-26.392-26.392-31.164-57.558-47.43-23.698-12.856-39.282 13.538-62.978 0-12.888-2.694-29.12-10.162-36.552 0 10.162 8.116 33.826 10.808 33.826 31.846l-10.162 2.694c-23.662-5.386-55.512-18.276-76.48 2.728-4.738 2.046-7.466 7.432-7.466 12.856 23.698 26.392 64.99 41.942 64.99 81.254 26.392 31.13 68.402 49.408 71.094 91.416 5.42 5.422 18.276 2.694 26.392 2.694 23.698-7.466 39.246-33.86 44.702-57.558 2.046-2.728 4.74 0 7.468 0 2.694 0-7.468 41.942-7.468 44.702 7.468 2.694 20.322 15.582 33.858 23.664 18.276 12.89 26.358 21.004 31.132 25.744 26.392 23.698 39.246 37.234 47.396 44.702l36.552 31.812 29.12 15.584c12.856 5.42 31.132 10.162 36.52 10.162 73.174-2.046 125.924-96.804 232.922-62.264 83.948 25.708 157.736 23.016 209.872-31.846 36.552-39.246 75.834-91.416 78.562-133.39 0-18.242-7.466-16.264-28.438-13.502-15.582 5.42-8.116-4.738-8.116-10.162-10.196-23.698-15.582-34.54-23.698-41.976-15.582-29.12-36.552-41.942-46.714-47.396-5.386-5.422-16.23-7.466-26.392-12.89zM987.626 230.318c0 0-16.264-18.276-20.97-20.97-8.116-4.774-47.396-2.728-62.98-4.774-15.582 0-57.558-5.422-57.558 0 0 12.856 43.986 33.86 54.828 36.552 8.116 0 26.358 12.856 31.13 18.276 13.538 12.856 0 33.86 0 33.86s-26.596 27.176-24.14 26.972c-5.728 4.842-31.982 37.37-19.88 48.862 52.134 52.818 54.828 60.25 64.99 94.758 5.422 10.196 13.538 0 13.538 0s-2.694-41.94 7.466-78.526c8.082-23.698 26.358-62.98 29.12-65.672 5.422-5.422 15.582-26.392 15.582-29.12 0-4.74-2.728-20.97-7.466-28.438-2.66-8.082-23.664-31.778-23.664-31.778z" />
<glyph unicode="&#xe60c;" glyph-name="law-enforcement" d="M600.264 587.752c-47.808-14.712-73.552 29.424-110.328 29.424-3.68 0-14.712 0-18.392-3.68l-14.712-3.68-22.064-14.712c-3.68 0-11.032-11.032-25.744-18.392 0 0-3.68-3.68-14.712-11.032-3.68-3.68-11.032-11.032-14.712-11.032l3.68-18.392c-3.68 0-3.68 0-3.68 0 0 14.712-11.032 25.744-18.392 29.424-3.68 0-11.032 3.68-14.712 0 0-18.392-18.392-29.424-33.096-44.136 0-18.392-18.392-25.744-29.424-40.456l3.68-3.68c11.032-11.032 25.744-3.68 33.096 0h3.68c0-11.032-11.032-11.032-14.712-14.712 3.68-3.68 14.712 0 18.392 0 11.032 3.68 18.392-3.68 29.424 0 14.712 11.032 25.744 11.032 29.424 25.744 3.68 0 3.68 0 3.68 0l-3.68-18.392c3.68 3.68 3.68 3.68 11.032 11.032 0 0 11.032 18.392 14.712 25.744 0-11.032-3.68-14.712-3.68-18.392 3.68 0 11.032 11.032 14.712 14.712l3.68 11.032c3.68 0 0-18.392-3.68-25.744l-18.392-40.456c0-3.68-18.392-33.096-29.424-44.136-11.032-3.68-29.424-11.032-29.424-18.392 0 0 47.808 0 66.2 3.68 11.032 3.68 29.424 40.456 44.136 47.808 3.68 3.68 14.712 11.032 25.744 14.712 25.744 11.032 11.032 44.136 25.744 18.392 14.712-11.032 29.424-3.68 66.2-3.68-11.032 3.68-14.712 18.392-14.712 18.392 3.68 3.68 11.032-11.032 11.032-3.68 0 11.032 3.68 25.744 3.68 18.392 0 0 3.68-14.712 3.68-11.032 0 11.032 0 11.032 3.68 14.712s3.68 11.032 11.032 11.032c3.68 0 3.68 3.68 3.68 0-11.032-14.712-18.392-29.424-18.392-47.808 0-25.744 25.744-40.456 11.032-58.84-3.68-14.712-25.744-3.68-29.424-18.392 0-3.68 0-3.68 3.68-3.68 18.392 0 29.424 0 44.136 0 14.712 3.68 11.032 11.032 14.712 14.712 3.68 25.744 3.68 25.744 11.032 29.424 0 11.032 14.712 25.744 14.712 29.424s14.712 14.712 25.744 18.392c3.68 0 11.032 0 11.032 0 3.68 3.68 18.392 11.032 25.744 25.744 3.68 3.68 3.68 11.032 14.712 25.744-3.68 0-11.032 3.68 0 0 11.032 0 14.712 0 18.392-11.032-3.68 18.392-18.392 44.136-40.456 66.2-29.424 14.712-66.2 14.712-102.976 3.68zM721.632 514.2c0 0 0 3.68-3.68 0-3.68-14.712-3.68-18.392-29.424-44.136-3.68-3.68 11.032-25.744 11.032-25.744-3.68 0 11.032-14.712 11.032-14.712s3.68-11.032 0-14.712c0-3.68-11.032-11.032-14.712-11.032-3.68-3.68-25.744-14.712-25.744-18.392s25.744 0 29.424 0c3.68 0 25.744 0 29.424 0l11.032 11.032c0 0 11.032 11.032 11.032 14.712 3.68 3.68 3.68 14.712 3.68 14.712s-3.68 11.032-11.032 18.392c0 0-11.032 18.392-14.712 29.424-7.352 22.064-7.352 40.456-7.352 40.456zM508.32 436.968c0 0-14.712 0-14.712-3.68-3.68 0-18.392-3.68-18.392-3.68s0-3.68 3.68-11.032c0-3.68 0-14.712-3.68-18.392-3.68 0-18.392-3.68-18.392-3.68l-3.68-3.68c0 0 0 0 11.032 0s33.096 0 40.456 0c11.032-3.68 18.392 14.712 25.744 18.392 0 3.68 3.68 14.712 11.032 29.424 0 3.68 0 3.68 0 3.68s-3.68 0-11.032 0c-11.032-3.68-22.064-7.352-22.064-7.352zM1019.52 584.072l-261.12 73.552-14.712 275.832-224.344-154.464-228.016 161.816-14.712-275.832-261.12-73.552 202.272-183.888-102.976-253.76 272.152 44.136 132.4-242.728 132.4 239.048 272.152-44.136-110.328 253.76 205.952 180.208zM519.352 208.952c-143.432 0-261.12 117.688-261.12 261.12s117.688 261.12 261.12 261.12 261.12-117.688 261.12-261.12-117.688-261.12-261.12-261.12z" />
<glyph unicode="&#xe60d;" glyph-name="justice-legal" d="M791.196 288.462c97.9 0 177.674 79.774 174.048 181.294l-163.166 326.332-10.88 18.128c-3.626 3.628-10.88 3.628-18.128 3.628l-206.676-21.754v32.636c18.128 10.882 32.636 32.636 32.636 54.392 0 36.256-29.010 65.264-65.264 65.264s-65.264-29.010-65.264-65.264c0-21.756 14.5-47.138 32.636-54.392v-47.136l-199.43-21.754c-3.628 0-10.88-3.628-14.5-10.88l-7.254-18.128-163.166-326.332c3.626-94.274 83.4-174.048 181.294-174.048s177.674 76.146 181.294 174.048l-163.166 326.332v7.254l195.802 21.754v-649.044h-155.912c-14.5 0-21.754-10.88-21.754-21.754 0-3.626 0-3.626 0-10.88h-54.392c-14.5 0-29.010-14.5-29.010-32.636v-18.128c0-18.128 14.5-32.636 29.010-32.636h529.388c14.5 0 29.010 14.5 29.010 32.636v18.128c0 18.128-14.5 32.636-29.010 32.636h-54.39c0 3.626 0 3.626 0 10.88 0 14.5-10.88 21.754-21.754 21.754h-155.912v659.918l195.802 21.754-159.538-326.332c0-97.9 79.774-177.674 177.674-177.674zM439.48 411.744h-282.822l137.784 319.084 145.038-319.084zM783.948 788.84l145.038-326.332h-282.822l137.784 326.332z" />
<glyph unicode="&#xe60e;" glyph-name="at-sign" d="M746.242 643.844h-115.198l-23.044-38.4c-23.044 34.56-57.602 53.764-103.68 53.764-130.562 0-234.242-115.198-234.242-268.802 0-111.358 53.764-165.122 161.284-165.122 57.604 0 99.842 23.044 134.4 72.96 3.84-49.916 42.238-72.96 111.358-72.96 53.764 0 107.52 19.204 153.596 53.764 80.636 61.442 122.884 153.596 122.884 261.124 0 203.52-161.284 349.438-407.042 349.438-157.444 0-295.684-61.442-387.838-172.8-69.12-80.636-103.68-180.478-103.68-291.836 0-126.722 46.076-226.564 138.24-299.524 80.638-65.282 184.318-99.842 307.202-99.842 126.722 0 238.082 38.4 341.76 111.358l-53.764 76.798c-80.638-57.602-172.8-88.324-276.48-88.324-211.2 0-345.6 119.036-345.6 303.362 0 119.036 53.764 222.716 149.758 291.836 61.442 42.238 142.080 65.28 230.402 65.28 184.318 0 299.524-103.68 299.524-245.758 0-126.722-80.636-222.716-157.444-222.716-15.356 0-23.044 7.678-23.044 23.044 0 3.84 0 7.678 3.84 15.356l76.798 287.996zM558.076 409.6c-15.356-61.442-53.764-96.002-99.842-96.002-34.56 0-53.764 26.882-53.764 72.958 0 99.842 53.764 184.318 111.358 184.318 34.56 0 57.602-23.044 61.442-69.12l-19.204-92.164z" />
<glyph unicode="&#xe60f;" glyph-name="attachment" d="M144.104 715.56c-52.024-74.32-85.472-167.224-85.472-267.56s29.728-193.24 85.472-267.56v535.12zM682.944 797.32l193.24-193.24v-423.64c52.024 74.32 85.472 167.224 85.472 267.56 0 252.696-204.384 460.8-453.368 460.8-111.48 0-215.536-40.88-293.576-111.48 3.72 0 468.232 0 468.232 0zM827.872 559.48h-189.52v189.52h-442.216v-628.024c81.752-81.752 193.24-133.784 315.872-133.784s234.12 52.024 315.872 133.784v438.504zM649.496 87.536c-22.296 0-40.88 7.432-63.176 26.016-52.024 44.592-304.72 304.72-315.872 315.872 0 0-29.728 33.448-26.016 74.32 3.72 29.728 14.864 55.744 44.592 78.040 14.864 11.152 26.016 22.296 37.16 29.728 74.32 66.888 118.92 96.616 226.68-18.584l174.656-174.656-29.728-26.016-174.656 174.656c-89.184 92.904-104.048 78.040-170.944 18.584-11.152-11.152-22.296-22.296-37.16-33.448-18.584-14.864-29.728-33.448-29.728-52.024 0-26.016 14.864-44.592 14.864-44.592 3.72-3.72 260.128-271.28 312.152-312.152 26.016-18.584 55.744-33.448 115.2 29.728 26.016 29.728 0 63.176-3.72 66.888-85.472 85.472-219.248 219.248-230.4 230.4-11.152 7.432-29.728-7.432-37.16-14.864-14.864-14.864-11.152-26.016-7.432-29.728l137.496-137.496-29.728-26.016-141.216 141.216c-7.432 14.864-18.584 48.312 11.152 78.040 44.592 44.592 78.040 29.728 89.184 18.584 14.864-11.152 211.816-211.816 234.12-234.12 18.584-22.296 44.592-74.32 3.72-118.92-33.448-37.16-70.608-59.456-104.048-59.456z" />
<glyph unicode="&#xe610;" glyph-name="zipped-file" d="M386.704 119.102h70.48v-39.15h-70.48v39.15zM692.112 816.058l203.606-203.606v-446.37c54.822 78.312 90.056 176.198 90.056 281.918 0 266.258-215.35 485.524-477.692 485.524-117.466 0-227.096-43.068-309.322-117.466 3.914 0 493.354 0 493.354 0zM124.368 729.918c-54.82-78.312-90.056-176.198-90.056-281.918s31.32-203.606 90.056-281.916v563.834zM844.812 565.464h-199.692v199.692h-164.452v-58.736h-58.736v58.736h-242.764v-661.72c50.906-50.906 113.55-90.056 184.032-113.55v176.198h117.466v-195.776c11.746 0 19.574 0 31.32 0 129.21 0 246.678 54.822 332.812 140.956v454.198zM418.028 263.97h-58.736v58.736h58.736v-58.736zM418.028 389.264h-58.736v58.736h58.736v-58.736zM418.028 514.566h-58.736v58.736h58.736v-58.736zM418.028 639.86h-58.736v58.736h58.736v-58.736zM480.68 197.408h-58.736v58.736h58.736v-58.736zM480.68 326.62h-58.736v58.736h58.736v-58.736zM480.68 451.916h-58.736v58.736h58.736v-58.736zM480.68 577.21h-58.736v58.736h58.736v-58.736zM766.512 169.998v-54.822h-211.436v50.906l137.040 215.35h-133.126v54.822h203.606v-50.906l-133.126-215.35h137.040z" />
<glyph unicode="&#xe611;" glyph-name="powerpoint" d="M127.998 725.716c-54.856-78.858-85.716-174.858-85.716-277.716s34.286-198.858 89.144-277.716v555.432zM690.286 814.858l202.286-202.286v-442.288c54.856 78.858 89.144 174.858 89.144 277.716 0 264.002-212.574 480.004-469.718 480.004-116.572 0-222.858-44.572-305.146-116.572 0 3.428 483.432 3.428 483.432 3.428zM388.57 568h-17.144v-126.858h17.144c48 0 120-6.856 120 61.716 0 72-72 65.144-120 65.144zM841.146 564.572h-195.43v195.43h-462.86v-654.86c85.716-85.716 202.286-137.144 329.146-137.144 130.286 0 246.858 51.428 329.146 137.144v459.432zM477.714 153.142h-51.428v51.428h51.428v-51.428zM477.714 252.57h-51.428v51.428h51.428v-51.428zM429.714 365.714h-61.716v-216.002h-89.144v493.718h174.858c106.286 0 147.43-75.428 147.43-140.572 0-68.572-41.144-137.144-171.43-137.144zM741.716 153.142h-212.574v51.428h212.574c0 0 0-51.428 0-51.428zM529.144 252.57v51.428h212.574v-51.428h-212.574z" />
<glyph unicode="&#xe612;" glyph-name="excel" d="M124.942 729.498c-54.734-78.192-89.924-175.936-89.924-281.498s31.276-203.306 89.924-281.498v562.994zM691.848 815.518l203.306-203.306v-445.706c54.732 78.192 89.924 175.936 89.924 281.498 0 265.858-215.030 484.802-476.984 484.802-117.286 0-226.764-43.010-308.87-117.288 3.914 0 492.622 0 492.622 0zM308.694 483.19v-15.638l312.774-316.688h27.372v35.192l-297.134 297.134zM844.326 565.288h-199.392v199.392h-465.25v-660.736c86.010-86.010 203.306-140.752 332.326-140.752s246.316 54.732 332.326 140.752v461.346zM625.38 123.494l-152.478 152.478-78.192-82.106h74.286c-11.734-11.734-35.192-35.192-50.83-54.732h-164.21v43.010l148.572 148.572-132.934 132.934v43.010h168.116l101.65-101.65 101.65 101.65h93.83v-43.010l-140.754-148.572h35.192l78.192-78.192 62.552-58.648v-54.732c3.914 0-144.658 0-144.658 0z" />
<glyph unicode="&#xe613;" glyph-name="word" d="M128.128 729.286c-56.258-79.422-89.35-175.39-89.35-281.286s33.092-201.864 89.35-281.286v562.57zM694.008 815.326l205.172-201.864v-443.438c56.258 79.422 89.35 175.39 89.35 281.286 0 264.738-211.792 483.148-473.22 483.148-115.824 0-225.028-43.020-307.758-115.824-3.31-3.31 486.458-3.31 486.458-3.31zM842.924 563.824h-198.554l-3.31 198.554h-459.984v-658.538c86.040-86.040 201.864-138.988 330.924-138.988s244.884 52.948 330.924 138.988v459.984zM753.574 454.618l-158.844-320.996h-76.112v215.1l-119.132-211.792h-115.824v320.996h-36.402v52.948h152.224v-52.948h-36.402v-195.244l145.606 248.192h86.040v-221.718l82.73 168.772h-29.784v52.948h138.988v-52.948h-33.092z" />
<glyph unicode="&#xe614;" glyph-name="pdf" d="M131.176 722.856c-52.984-76.164-86.1-172.2-86.1-274.856s33.116-198.692 86.1-274.856v549.712zM528.558 408.262c0 0-3.312 3.312-3.312 6.624-23.18 33.116-33.116 59.608-36.426 59.608 0 3.312-3.312 6.624-3.312 6.624s0 0 0-3.312-3.312-9.934-6.624-19.87c-16.558-43.050-33.116-79.476-33.116-79.476s-9.934-16.558-13.246-26.492c-9.934-23.18-23.18-43.050-33.116-59.608 56.296 23.18 122.526 43.050 188.756 52.984-9.934 6.624-16.558 13.246-26.492 19.87-9.934 13.246-23.18 26.492-33.116 43.050zM690.822 808.956l202.002-202.002v-437.12c56.296 79.476 86.1 172.2 86.1 274.856 0 261.61-208.626 476.858-466.924 476.858-115.904 0-221.872-43.050-301.348-112.592 0 0 480.17 0 480.17 0zM839.84 560.592h-195.38v195.38h-460.302v-649.058c82.788-86.1 198.692-135.772 327.84-135.772s241.74 52.984 327.84 135.772v453.678zM806.726 308.916v-3.312c-3.312-9.934-9.934-19.87-39.738-19.87-36.426 0-92.722 16.558-142.396 43.050-82.788-9.934-172.2-26.492-235.118-49.672-59.608-102.658-105.968-152.33-139.084-152.33-6.624 0-9.934 0-13.246 3.312l-16.558 6.624c-3.312 6.624-6.624 13.246-3.312 19.87 6.624 26.492 36.426 69.542 109.28 105.968l6.624-9.934c-52.984-36.426-89.412-86.1-92.722-105.968 36.426 9.934 92.722 86.1 162.264 228.494 0 0 0 3.312 3.312 6.624 0 3.312 3.312 3.312 3.312 6.624l3.312 6.624c3.312 3.312 3.312 9.934 9.934 19.87 6.624 13.246 13.246 29.804 23.18 56.296v0l3.312 6.624c6.624 16.558 13.246 33.116 16.558 49.672-19.87 62.918-23.18 129.15-13.246 168.888 3.312 16.558 13.246 19.87 19.87 19.87h9.934c3.312 0 13.246 0 19.87-6.624s6.624-19.87 3.312-36.426h-9.934c-3.312 16.558-6.624 23.18-13.246 29.804 0-3.312-3.312-6.624-6.624-9.934-6.624-19.87-3.312-59.608 3.312-102.658 3.312 16.558 6.624 33.116 6.624 46.362 3.312 13.246 3.312 23.18 6.624 29.804h9.934v-16.558c0-36.426 0-72.854-9.934-115.904 3.312-13.246 9.934-23.18 13.246-36.426v0l3.312-6.624c6.624-16.558 26.492-49.672 26.492-49.672 9.934-16.558 26.492-33.116 43.050-49.672 16.558-13.246 33.116-23.18 49.672-33.116 26.492 3.312 49.672 3.312 69.542 3.312 36.426 0 86.1-3.312 99.346-26.492 9.934-6.624 13.246-13.246 9.934-26.492v0 0zM793.48 318.85c-3.312 3.312-19.87 16.558-86.1 16.558-6.624 0-13.246 0-23.18 0 36.426-16.558 72.854-23.18 96.034-23.18 6.624 0 13.246 0 16.558 3.312v0h-3.312c0 0 0 0 0 3.312z" />
<glyph unicode="&#xe615;" glyph-name="share" d="M982.568 167.016c-16.928-101.562-111.716-169.266-209.894-152.34-101.562 16.928-169.268 111.716-152.34 209.894 0 0 0 0 0 0l-236.976 101.562c-33.854-37.24-88.018-57.55-142.186-47.394-88.018 13.542-145.57 94.79-132.030 182.812s94.79 145.572 182.812 132.030c27.082-3.386 54.168-16.928 74.476-33.854l253.902 148.958c-3.386 13.54-3.386 27.082 0 40.622 13.542 74.476 81.25 125.258 155.726 111.716s125.258-81.25 111.716-155.726c-13.542-74.476-81.25-125.258-155.726-111.716-23.698 3.386-40.624 13.54-57.55 23.7l-253.902-148.958c3.386-16.928 3.386-30.468 3.386-47.396l243.748-101.562c40.624 44.010 101.562 67.708 162.498 57.55 98.176-13.542 169.268-108.332 152.34-209.894z" />
<glyph unicode="&#xe616;" glyph-name="facebook" d="M596.246 416.41h136.894l21.060 157.956h-157.956v101.796c0 42.12 14.040 80.734 80.736 80.734h87.754v140.406c-14.040 0-66.694 7.020-122.856 7.020-122.856 0-210.61-73.716-210.61-217.63v-122.856h-136.894v-157.956h136.894v-407.176h164.976v417.704z" />
<glyph unicode="&#xe617;" glyph-name="linkedin" d="M320.56 783.020c0-55.062-44.638-99.71-99.71-99.71s-99.71 44.638-99.71 99.71c0 55.062 44.638 99.71 99.71 99.71s99.71-44.638 99.71-99.71zM137.1 611.52h167.51v-538.428h-167.51v538.428zM731.36 627.48c-79.77 0-135.6-43.87-155.55-87.74v75.78h-167.51v-538.428h167.51v267.22c0 67.8 11.97 135.6 99.71 135.6s87.74-79.77 87.74-143.58v-263.23h167.51v295.14c0 143.58-31.91 259.24-199.42 259.24z" />
<glyph unicode="&#xe618;" glyph-name="youtube" d="M979.706 676.414c0 0-10.876 68.884-36.254 94.266-36.254 36.254-76.14 36.254-94.264 39.88-137.774 10.876-337.184 10.876-337.184 10.876s-199.41 0-337.184-10.876c-18.13 0-58.010 0-94.266-39.88-29.004-29.006-36.256-94.266-36.256-94.266s-10.876-83.39-10.876-159.524v-72.51c0-83.39 10.876-159.524 10.876-159.524s10.876-68.884 36.256-94.264c36.256-36.254 83.39-36.254 105.144-39.88 76.14-3.626 326.306-10.876 326.306-10.876s199.41 0 337.184 10.876c18.13 0 58.010 0 94.264 39.88 29.004 29.004 36.254 94.264 36.254 94.264s10.876 76.14 10.876 159.524v72.51c0 83.39-10.876 159.524-10.876 159.524zM370.6 281.22v395.192l373.44-195.784-373.44-199.41z" />
<glyph unicode="&#xe619;" glyph-name="twitter" d="M904.76 618.764c0-10.246 0-17.076 0-27.322 0-256.146-194.67-549.862-549.862-549.862-109.288 0-208.334 30.738-297.13 85.382 13.662 0 30.738-3.416 44.4-3.416 92.214 0 174.18 30.738 242.486 81.966-85.382 0-153.688 58.060-181.008 133.198 13.662-3.416 23.906-3.416 37.568-3.416 17.076 0 37.568 3.416 51.228 3.416-85.382 17.076-153.688 95.626-153.688 191.256 0 0 0 0 0 3.416 27.322-13.66 54.644-23.906 85.382-23.906-51.228 37.566-85.382 95.628-85.382 160.518 0 37.568 10.246 68.306 27.322 95.628 95.626-119.536 235.656-194.67 396.174-201.502-10.246 13.662-10.246 27.322-10.246 47.816 0 105.876 85.382 191.258 191.256 191.258 54.644 0 105.876-23.906 140.026-58.060 44.4 10.246 85.382 23.906 122.948 44.4-10.246-47.816-44.4-81.966-85.382-105.876 40.982 3.416 78.552 13.662 109.288 30.738-13.66-30.738-44.4-68.306-85.382-95.628z" />
</font>
</defs>
</svg>
